<?xml version="1.0" encoding="UTF-8" standalone="no"?>
<!-- Created with Inkscape (http://www.inkscape.org/) -->

<svg
   width="47.889618mm"
   height="47.889641mm"
   viewBox="0 0 47.889618 47.889641"
   version="1.1"
   id="svg1"
   xml:space="preserve"
   inkscape:export-filename="1.svg"
   inkscape:export-xdpi="96"
   inkscape:export-ydpi="96"
   xmlns:inkscape="http://www.inkscape.org/namespaces/inkscape"
   xmlns:sodipodi="http://sodipodi.sourceforge.net/DTD/sodipodi-0.dtd"
   xmlns="http://www.w3.org/2000/svg"
   xmlns:svg="http://www.w3.org/2000/svg"><sodipodi:namedview
     id="namedview1"
     pagecolor="#ffffff"
     bordercolor="#000000"
     borderopacity="0.25"
     inkscape:showpageshadow="2"
     inkscape:pageopacity="0.0"
     inkscape:pagecheckerboard="0"
     inkscape:deskcolor="#d1d1d1"
     inkscape:document-units="mm"
     showgrid="false" /><defs
     id="defs1" /><g
     inkscape:label="Слой 1"
     inkscape:groupmode="layer"
     id="layer1"
     transform="translate(-62.955232,-118.52607)"><path
       style="fill:#9ebbe0;fill-opacity:1;stroke:none;stroke-width:0;stroke-dasharray:none"
       d="m 83.910414,164.89436 0.0794,-1.52135 2.73949,-0.0757 c 1.79287,-0.0496 2.86713,0.0302 3.10886,0.23083 0.22371,0.18566 0.36936,0.81544 0.36936,1.59706 0,1.20017 -0.0463,1.29052 -0.66146,1.29052 -0.57957,0 -0.66146,-0.11465 -0.66146,-0.92604 0,-0.92604 0,-0.92604 -1.85208,-0.92604 -1.85209,0 -1.85209,0 -1.85209,0.92604 0,0.81622 -0.08,0.92604 -0.67466,0.92604 -0.65414,0 -0.67225,-0.0463 -0.59531,-1.52135 z m -18.98197,-0.39709 c -0.0718,-0.18703 -0.0986,-3.31447 -0.0596,-6.94987 0.0688,-6.40979 0.0869,-6.60981 0.60007,-6.60981 0.51231,0 0.53143,0.20003 0.60009,6.27899 l 0.0709,6.27899 6.14679,0.071 c 5.94672,0.0687 6.14678,0.0882 6.14678,0.60018 0,0.51334 -0.19995,0.53128 -6.68728,0.59986 -5.25512,0.0556 -6.71523,-0.002 -6.81778,-0.26935 z m 30.67298,-0.0487 c -0.33289,-0.86751 0.16975,-0.94327 6.258446,-0.94327 h 6.06493 l 0.071,-6.15157 c 0.0687,-5.9515 0.0882,-6.15156 0.60019,-6.15156 0.51533,0 0.52916,0.17639 0.52916,6.74688 v 6.74687 l -6.68728,0.0707 c -5.683346,0.0601 -6.709676,0.0123 -6.836466,-0.31805 z m -0.002,-2.38581 c -0.32362,-0.84361 0.18987,-0.93871 5.068706,-0.93871 h 4.87334 l 0.072,-4.96094 c 0.0691,-4.76055 0.0934,-4.96094 0.60115,-4.96094 0.509,0 0.5319,0.20034 0.60101,5.25769 0.0499,3.6545 -0.0205,5.36889 -0.23083,5.6224 -0.45765,0.55142 -10.773206,0.53311 -10.985266,-0.0195 z m -28.29076,-0.21363 c -0.0726,-0.18909 -0.0995,-2.66201 -0.0599,-5.49538 0.0693,-4.95117 0.0926,-5.15158 0.60123,-5.15158 0.50718,0 0.53216,0.20042 0.60126,4.82296 l 0.0721,4.82295 5.08728,0.0718 c 4.88695,0.069 5.08729,0.0927 5.08729,0.601 0,0.51035 -0.2002,0.53171 -5.62868,0.6006 -4.4247,0.0561 -5.65689,-0.002 -5.7606,-0.27239 z m 24.08281,-3.95382 c -0.0754,-0.19658 -0.10484,-2.79499 -0.0653,-5.77424 l 0.0718,-5.41681 h 5.68854 c 5.512146,0 5.688536,0.0164 5.688536,0.52916 0,0.50833 -0.20033,0.532 -5.087526,0.60101 l -5.08754,0.0718 -0.0718,5.0841 c -0.065,4.60184 -0.11583,5.09257 -0.53566,5.17324 -0.2551,0.049 -0.52554,-0.0717 -0.60098,-0.2683 z m -9.72987,-0.11351 c -0.10205,-0.10204 -0.18554,-2.36566 -0.18554,-5.03026 v -4.84472 l -4.82864,-0.0721 c -4.62822,-0.0691 -4.82865,-0.0941 -4.82865,-0.60128 0,-0.51196 0.17639,-0.52916 5.42396,-0.52916 h 5.42396 v 5.55262 c 0,4.80301 -0.0553,5.56328 -0.40978,5.63154 -0.22538,0.0434 -0.49327,-0.005 -0.59531,-0.10662 z m 7.08486,-0.14892 c -0.075,-0.19541 -0.10438,-3.27007 -0.0653,-6.83258 l 0.071,-6.47729 h 6.87916 c 6.702776,0 6.879166,0.0136 6.879166,0.52916 0,0.51231 -0.20003,0.53143 -6.278986,0.60009 l -6.27899,0.0709 -0.071,6.14331 c -0.0649,5.61176 -0.11114,6.15102 -0.53483,6.23248 -0.2551,0.049 -0.52517,-0.0707 -0.60016,-0.26609 z m -4.43903,-0.11566 c -0.10204,-0.10204 -0.18553,-2.8424 -0.18553,-6.08969 v -5.90415 l -6.15157,-0.071 c -5.95149,-0.0687 -6.15156,-0.0882 -6.15156,-0.60019 0,-0.51533 0.17639,-0.52916 6.74688,-0.52916 h 6.74687 v 6.61095 c 0,5.75857 -0.0528,6.62114 -0.40977,6.68988 -0.22538,0.0434 -0.49327,-0.005 -0.59532,-0.10662 z m 14.23426,-0.0801 -2.64583,-0.14953 v -2.91042 -2.91041 l 2.73949,-0.0757 c 1.826436,-0.0505 2.865446,0.0288 3.117406,0.23793 0.55988,0.46466 0.40553,5.90783 -0.16836,5.9373 -0.21828,0.0112 -1.587496,-0.0469 -3.042706,-0.12916 z m 2.248956,-3.05995 v -1.71979 h -1.852076 -1.85209 v 1.71979 1.71979 h 1.85209 1.852076 z m -28.722406,2.70186 c -0.0756,-0.19705 -0.10315,-1.54042 -0.0612,-2.98527 l 0.0763,-2.627 h 3.04271 3.04271 v 2.91041 2.91042 l -2.98152,0.0749 c -2.31624,0.0582 -3.0122,-0.005 -3.11901,-0.28342 z m 4.90991,-2.70186 v -1.71979 h -1.85209 -1.85208 v 1.71979 1.71979 h 1.85208 1.85209 z m -14.02292,-9.24444 c 0,-0.55491 0.13923,-0.65701 0.99219,-0.72761 0.99219,-0.0821 0.99219,-0.0821 1.07042,-1.86805 0.0782,-1.78594 0.0782,-1.78594 -0.99219,-1.78594 -0.95052,0 -1.07042,-0.0704 -1.07042,-0.62869 0,-0.57369 0.13312,-0.64024 1.52135,-0.76061 0.83675,-0.0725 1.61066,-0.0803 1.7198,-0.0171 0.34166,0.19758 0.2333,5.76365 -0.11907,6.11602 -0.17462,0.17463 -0.94853,0.3175 -1.71979,0.3175 -1.31013,0 -1.40229,-0.0424 -1.40229,-0.64548 z m 44.828416,0.0313 c -0.0738,-0.19226 -0.0998,-1.53171 -0.0578,-2.97656 l 0.0763,-2.627 1.52135,-0.0793 c 1.47508,-0.0769 1.52136,-0.0588 1.52136,0.59531 0,0.59465 -0.10982,0.67466 -0.92605,0.67466 -0.92604,0 -0.92604,0 -0.92604,1.71979 0,1.71979 0,1.71979 0.92604,1.71979 0.81139,0 0.92605,0.0819 0.92605,0.66146 0,0.62584 -0.0788,0.66146 -1.46351,0.66146 -0.96879,0 -1.50886,-0.11817 -1.59766,-0.34956 z m -36.259486,-4.79266 c -0.33351,-0.86912 0.16838,-0.9432 6.39068,-0.9432 h 6.19712 l 0.0711,-6.01927 c 0.0687,-5.81917 0.0887,-6.01927 0.60028,-6.01927 0.51506,0 0.52917,0.17639 0.52917,6.61459 v 6.61458 l -6.81961,0.0706 c -5.79907,0.0601 -6.84192,0.0125 -6.96876,-0.31805 z m 17.21658,0.0486 c -0.0718,-0.1872 -0.0987,-3.25515 -0.0596,-6.81766 0.0688,-6.27724 0.0873,-6.47729 0.60015,-6.47729 0.51195,0 0.53148,0.20006 0.60018,6.14661 l 0.071,6.1466 6.01441,0.0711 c 5.814316,0.0687 6.014396,0.0887 6.014396,0.60027 0,0.51302 -0.19998,0.53133 -6.554956,0.59995 -5.1504,0.0556 -6.58295,-0.002 -6.68557,-0.26958 z m -16.95161,-2.42887 c -0.32508,-0.84714 0.18215,-0.94421 4.93408,-0.94421 h 4.74092 l 0.0721,-4.82864 c 0.0691,-4.62822 0.0941,-4.82865 0.60128,-4.82865 0.51196,0 0.52916,0.17639 0.52916,5.42396 v 5.42396 l -5.364,0.0716 c -4.52595,0.0605 -5.38737,0.0108 -5.51355,-0.31806 z m 19.33216,0.0458 c -0.0725,-0.18891 -0.0994,-2.72137 -0.0599,-5.62768 0.0692,-5.08383 0.092,-5.2842 0.6011,-5.2842 0.50777,0 0.53208,0.20038 0.60113,4.95524 l 0.072,4.95525 5.08741,0.0718 c 4.887076,0.069 5.087406,0.0927 5.087406,0.601 0,0.51035 -0.2002,0.53171 -5.628666,0.60059 -4.42194,0.0561 -5.65693,-0.002 -5.76048,-0.27204 z m -26.18724,-4.21637 c -0.0749,-0.19528 -0.10434,-3.31571 -0.0653,-6.9343 l 0.0709,-6.57924 6.48229,0.051 c 3.56526,0.0281 6.5874,0.15513 6.71586,0.28237 0.12847,0.12724 0.16197,0.41794 0.0744,0.646 -0.13795,0.3595 -0.95149,0.41466 -6.11567,0.41466 h -5.95655 l -0.071,6.14808 c -0.0649,5.61631 -0.11114,6.1558 -0.53485,6.23726 -0.2551,0.049 -0.52513,-0.0706 -0.60006,-0.26587 z m 2.43023,0.12163 c -0.076,-0.12299 -0.16508,-2.65966 -0.19793,-5.63704 l -0.0597,-5.41343 h 5.53108 c 5.35469,0 5.53108,0.0169 5.53108,0.52916 0,0.50718 -0.20042,0.53216 -4.82283,0.60126 l -4.82283,0.0721 -0.072,4.95158 c -0.0634,4.36414 -0.12397,4.96156 -0.51032,5.03578 -0.24109,0.0463 -0.50054,-0.0164 -0.57655,-0.1394 z m 9.73866,-0.0513 c -0.14359,-0.14359 -1.33174,-0.29589 -2.64033,-0.33845 l -2.37925,-0.0774 0.0202,-2.91042 0.0202,-2.91041 h 3.02253 3.02254 v 3.17137 c 0,2.62793 -0.069,3.18466 -0.40238,3.24887 -0.22131,0.0426 -0.51986,-0.04 -0.66345,-0.18358 z m -0.12479,-3.32625 v -1.71979 h -1.68368 c -1.68383,0 -1.68383,0 -1.85208,1.22755 -0.31613,2.30641 -0.38798,2.21203 1.68382,2.21203 h 1.85209 z m 28.760536,3.40463 c -0.10205,-0.10204 -0.18554,-2.36566 -0.18554,-5.03026 v -4.84466 l -4.82865,-0.0721 c -4.628216,-0.0691 -4.828636,-0.0941 -4.828636,-0.60128 0,-0.51196 0.17639,-0.52916 5.423956,-0.52916 h 5.42395 v 5.55262 c 0,4.80301 -0.0553,5.56328 -0.40977,5.63154 -0.22538,0.0434 -0.49327,-0.005 -0.59531,-0.10662 z m 2.38125,-0.26458 c -0.10205,-0.10204 -0.18554,-2.8424 -0.18554,-6.08969 v -5.90415 l -6.15156,-0.071 c -5.951496,-0.0687 -6.151566,-0.0882 -6.151566,-0.60019 0,-0.51533 0.17639,-0.52916 6.746876,-0.52916 h 6.74687 v 6.61095 c 0,5.75857 -0.0528,6.62114 -0.40977,6.68988 -0.22538,0.0434 -0.49327,-0.005 -0.59531,-0.10662 z m -12.228546,-0.68405 c -0.0831,-0.33216 -0.11613,-1.67548 -0.0733,-2.98516 l 0.0778,-2.38125 h 3.04271 3.042696 v 2.91041 2.91042 l -2.969356,0.0747 c -2.89984,0.073 -2.9729,0.0606 -3.12052,-0.52916 z m 4.899256,-2.456 v -1.71979 h -1.852076 -1.85209 v 1.71979 1.71979 h 1.85209 1.852076 z M 84.042124,121.5331 c -0.10164,-0.10164 -0.18481,-0.81981 -0.18481,-1.59592 0,-1.3288 0.0386,-1.41111 0.66146,-1.41111 0.57957,0 0.66146,0.11465 0.66146,0.92604 0,0.92604 0,0.92604 1.71979,0.92604 1.7198,0 1.7198,0 1.7198,-0.92604 0,-0.81622 0.08,-0.92604 0.67466,-0.92604 0.65414,0 0.67224,0.0463 0.59531,1.52135 l -0.0794,1.52136 -2.79176,0.0746 c -1.53546,0.041 -2.87491,-0.009 -2.97656,-0.11024 z"
       id="path1" /><path
       style="fill:#9ebbe0;fill-opacity:1;stroke:none;stroke-width:0;stroke-dasharray:none"
       d="m 246.26326,506.48299 c -0.2735,-0.13479 -0.57411,-0.38808 -0.66803,-0.56287 -0.0987,-0.18363 -0.22911,-1.75224 -0.30896,-3.71566 -0.13525,-3.32529 -0.061,-24.51165 0.1394,-39.7688 l 0.10083,-7.67785 12.32077,0.0961 c 23.09904,0.18011 35.72658,0.56481 37.22373,1.13402 0.73527,0.27955 0.85589,2.07551 0.18192,2.70867 -0.45163,0.42428 -1.79558,0.73594 -4.01813,0.9318 -1.19132,0.10498 -9.1718,0.19529 -21.63307,0.2448 l -19.74537,0.0784 3.1e-4,2.8157 c 6.2e-4,5.60443 -0.30615,28.01354 -0.45718,33.39649 -0.20902,7.44958 -0.42842,9.42359 -1.13172,10.18247 -0.42855,0.46241 -1.23242,0.51723 -2.0045,0.13671 z"
       id="path3"
       transform="scale(0.26458333)" /><path
       style="fill:#9ebbe0;fill-opacity:1;stroke:none;stroke-width:0;stroke-dasharray:none"
       d="m 255.01686,506.41012 c -0.32034,-0.23424 -0.41783,-0.75937 -0.56773,-3.05815 -0.23651,-3.62682 -0.61887,-23.30913 -0.6207,-31.95137 l -0.001,-6.78082 18.09999,0.006 c 9.95521,0.003 19.0523,0.0981 20.2163,0.2113 2.60981,0.25376 3.11613,0.53342 3.11613,1.72114 0,0.78257 -0.068,0.88868 -0.75345,1.17506 -1.23636,0.51659 -5.20934,0.70039 -20.71025,0.95812 -8.10495,0.13476 -14.77539,0.28207 -14.82319,0.32735 -0.0478,0.0453 -0.16576,5.7295 -0.26213,12.6316 -0.18774,13.44715 -0.4833,21.5728 -0.841,23.12093 -0.34555,1.49553 -0.71335,1.92212 -1.65725,1.92212 -0.44469,0 -0.98257,-0.12726 -1.19528,-0.28279 z"
       id="path4"
       transform="scale(0.26458333)" /><path
       style="fill:#9ebbe0;fill-opacity:1;stroke:none;stroke-width:0;stroke-dasharray:none"
       d="m 291.755,506.13663 c -1.44055,-0.76686 -3.66933,-1.09005 -9.41652,-1.36548 -2.70166,-0.12947 -5.99329,-0.2881 -7.31475,-0.35252 l -2.40265,-0.11711 V 493.43056 482.5596 h 11.33446 11.33447 l -0.0705,11.0522 c -0.0641,10.04438 -0.10522,11.12942 -0.45073,11.899 -0.20909,0.46573 -0.49657,0.92077 -0.63884,1.01118 -0.48529,0.30841 -1.32878,0.17154 -2.37489,-0.38535 z m -0.76697,-12.70359 v -6.63924 l -5.49941,0.0782 c -6.44621,0.0916 -6.83201,0.18033 -7.39174,1.6992 -0.42239,1.14618 -1.20442,6.733 -1.20442,8.60434 0,1.62007 0.49312,2.39148 1.71193,2.67806 0.40927,0.0962 3.36301,0.1848 6.56388,0.19683 l 5.81976,0.0219 z"
       id="path5"
       transform="scale(0.26458333)" /><path
       style="fill:#9ebbe0;fill-opacity:1;stroke:none;stroke-width:0;stroke-dasharray:none"
       d="m 274.37073,522.50447 c -2.21208,-0.25424 -2.76442,-0.5282 -3.06105,-1.51827 -0.46196,-1.54188 0.41202,-2.12788 3.83043,-2.56833 0.90506,-0.11661 8.67261,-0.26856 17.26123,-0.33765 l 15.61566,-0.12563 0.14817,-11.55738 c 0.17601,-13.72948 0.43852,-21.6029 0.77189,-23.15128 0.17283,-0.80272 0.39656,-1.22957 0.77419,-1.477 0.69149,-0.45309 1.56593,-0.16745 1.95176,0.63755 0.51373,1.07188 0.67276,6.52963 0.67737,23.24737 l 0.005,16.5804 -1.12124,0.12623 c -1.84612,0.20785 -35.16475,0.33803 -36.85298,0.14399 z"
       id="path6"
       transform="scale(0.26458333)" /><path
       style="fill:#9ebbe0;fill-opacity:1;stroke:none;stroke-width:0;stroke-dasharray:none"
       d="m 274.22285,531.53014 c -1.7423,-0.11974 -3.24106,-0.48594 -3.57811,-0.87427 -0.17356,-0.19996 -0.37391,-0.61018 -0.44524,-0.91161 -0.31167,-1.31713 1.09036,-1.96075 5.09119,-2.33719 1.2921,-0.12158 11.45532,-0.28153 22.58494,-0.35545 l 20.23569,-0.1344 0.003,-6.42809 c 0.005,-10.77585 0.41135,-32.98979 0.64608,-35.32043 0.26349,-2.61619 0.44916,-3.17551 1.16198,-3.50029 0.80663,-0.36752 1.52651,0.045 1.81627,1.04089 0.44386,1.52545 0.62737,9.99554 0.63572,29.34116 l 0.008,19.34632 -14.5761,0.1417 c -14.35324,0.13952 -31.49402,0.13526 -33.58375,-0.008 z"
       id="path7"
       transform="scale(0.26458333)" /><path
       style="fill:#9ebbe0;fill-opacity:1;stroke:none;stroke-width:0;stroke-dasharray:none"
       d="m 319.6063,459.56066 c -1.73377,-0.13061 -1.88667,-0.21453 -2.16793,-1.18992 -0.16231,-0.56287 -0.26623,-2.44404 -0.27462,-4.97131 -0.0171,-5.14311 0.0177,-5.22448 2.2339,-5.22448 2.1181,0 2.24401,0.16538 2.4017,3.15457 0.0687,1.30231 0.2297,2.56363 0.35776,2.80292 0.40478,0.75634 1.66054,0.90959 6.86299,0.83757 6.09645,-0.0844 5.79165,0.0876 5.99049,-3.38158 0.18324,-3.1971 0.33541,-3.41348 2.40056,-3.41348 2.43881,0 2.36735,-0.18993 2.18918,5.81952 -0.11665,3.93448 -0.21087,5.01401 -0.45366,5.1982 -0.47352,0.35922 -15.82041,0.64824 -19.54037,0.36799 z"
       id="path8"
       transform="scale(0.26458333)" /><path
       style="fill:#9ebbe0;fill-opacity:1;stroke:none;stroke-width:0;stroke-dasharray:none"
       d="m 338.77425,531.46594 c -1.1452,-0.10403 -2.34653,-0.31544 -2.66961,-0.4698 -0.57112,-0.27285 -0.59116,-0.34286 -0.72144,-2.52115 -0.36706,-6.13689 -0.017,-41.30717 0.44706,-44.91913 0.29598,-2.30367 0.55977,-2.7951 1.54432,-2.87712 1.02724,-0.0856 1.34842,0.40426 1.65336,2.52156 0.12688,0.88098 0.32844,7.70451 0.44792,15.16342 0.11947,7.4589 0.27369,16.93912 0.34272,21.06714 l 0.12551,7.50551 4.51399,0.12085 c 2.48269,0.0665 11.72194,0.22435 20.53167,0.35084 8.80973,0.12649 16.73849,0.32502 17.61946,0.44119 1.717,0.2264 2.62698,0.70493 2.73642,1.43902 0.19544,1.31093 -0.83007,1.67302 -5.58928,1.97343 -4.3364,0.27372 -38.35122,0.44324 -40.9821,0.20424 z"
       id="path9"
       transform="scale(0.26458333)" /><path
       style="fill:#9ebbe0;fill-opacity:1;stroke:none;stroke-width:0;stroke-dasharray:none"
       d="m 347.74416,522.47886 c -1.1452,-0.0946 -2.34653,-0.29825 -2.66962,-0.45258 l -0.58743,-0.28061 -0.19636,-4.69658 c -0.22062,-5.27676 0.17998,-31.45995 0.51916,-33.93265 0.25876,-1.88641 0.63432,-2.47897 1.57115,-2.47897 0.929,0 1.32885,0.47837 1.60662,1.92213 0.24094,1.25231 0.57528,12.5123 0.79356,26.7256 l 0.13329,8.67901 6.43584,0.12516 c 29.7958,0.57942 30.37137,0.60369 31.47683,1.32679 0.34491,0.22561 0.48053,0.52251 0.48053,1.05197 0,0.97627 -0.54277,1.315 -2.56988,1.60377 -3.52593,0.50227 -32.04163,0.81597 -36.99369,0.40696 z"
       id="path10"
       transform="scale(0.26458333)" /><path
       style="fill:#9ebbe0;fill-opacity:1;stroke:none;stroke-width:0;stroke-dasharray:none"
       d="m 364.40314,504.58201 c -1.964,-0.41944 -2.17572,-1.30119 -2.15971,-8.99469 0.007,-3.23024 0.085,-7.48293 0.17399,-9.45044 l 0.16176,-3.57728 h 11.40321 11.40322 v 10.86177 10.86177 l -2.50944,0.13359 c -4.25237,0.22637 -17.62669,0.34604 -18.47303,0.16528 z m 16.71109,-11.13039 v -6.62064 h -7.15457 -7.15457 v 6.62064 6.62065 h 7.15457 7.15457 z"
       id="path11"
       transform="scale(0.26458333)" /><path
       style="fill:#9ebbe0;fill-opacity:1;stroke:none;stroke-width:0;stroke-dasharray:none"
       d="m 400.02374,506.40529 c -0.6517,-0.47654 -0.74651,-2.66824 -0.88955,-20.56411 l -0.1351,-16.9007 -9.10261,-0.13538 c -13.87548,-0.20637 -23.91262,-0.51557 -25.33386,-0.78041 -0.70478,-0.13133 -1.44961,-0.38942 -1.65517,-0.57353 -0.43555,-0.3901 -0.49022,-1.31814 -0.10678,-1.81254 0.66506,-0.85752 1.2386,-0.88355 21.26934,-0.9651 l 19.29382,-0.0786 -0.10507,19.28703 c -0.10624,19.50124 -0.1758,21.20754 -0.91027,22.33039 -0.36627,0.55994 -1.67436,0.66848 -2.32475,0.19291 z"
       id="path12"
       transform="scale(0.26458333)" /><path
       style="fill:#9ebbe0;fill-opacity:1;stroke:none;stroke-width:0;stroke-dasharray:none"
       d="m 409.01408,505.35238 c -0.64989,-0.47521 -0.78743,-4.25208 -0.92053,-25.27774 l -0.12727,-20.10442 -8.35376,-0.12612 c -22.02605,-0.33255 -34.30725,-0.60007 -35.45054,-0.7722 -0.6902,-0.10392 -1.52277,-0.29989 -1.85015,-0.4355 -1.00948,-0.41814 -1.01756,-1.79679 -0.0137,-2.33405 1.00043,-0.53541 5.92706,-0.65212 27.53482,-0.65229 l 22.49396,-1.8e-4 -0.0976,23.22565 c -0.0992,23.61663 -0.15088,25.10698 -0.91099,26.26901 -0.36132,0.55238 -1.67151,0.67055 -2.30431,0.20784 z"
       id="path13"
       transform="scale(0.26458333)" /><path
       style="fill:#9ebbe0;fill-opacity:1;stroke:none;stroke-width:0;stroke-dasharray:none"
       d="m 239.52299,550.68341 c -1.01011,-0.23758 -1.50012,-0.90195 -1.50012,-2.0339 0,-1.17612 0.28739,-1.92934 0.85128,-2.23112 0.24452,-0.13087 1.48516,-0.36645 2.75698,-0.52353 2.62345,-0.32401 3.08513,-0.50838 3.55674,-1.42037 0.40058,-0.77465 0.81067,-6.27858 0.70207,-9.42281 -0.1018,-2.9475 -0.16338,-2.99801 -3.86505,-3.17013 -1.558,-0.0725 -3.04363,-0.24459 -3.3014,-0.38254 -0.81069,-0.43387 -0.93594,-2.87825 -0.18592,-3.62827 0.49635,-0.49635 2.6876,-0.85884 6.89043,-1.13987 4.7859,-0.32001 4.87363,-0.2949 5.12516,1.46686 0.27425,1.92094 0.19067,15.00652 -0.11272,17.64763 -0.3439,2.99371 -0.61283,3.79681 -1.3973,4.17279 -1.47754,0.70816 -7.53737,1.13162 -9.52015,0.66526 z"
       id="path14"
       transform="scale(0.26458333)" /><path
       style="fill:#9ebbe0;fill-opacity:1;stroke:none;stroke-width:0;stroke-dasharray:none"
       d="m 319.25133,595.53799 c -0.25396,-0.10241 -0.51976,-0.36899 -0.59067,-0.59239 -0.33454,-1.05406 -0.54237,-11.53366 -0.5457,-27.51611 l -0.004,-17.53654 -15.00324,-0.1486 c -16.95773,-0.16795 -27.6489,-0.441 -29.50206,-0.75347 -0.69164,-0.11663 -1.43647,-0.37398 -1.65516,-0.5719 -0.50311,-0.45531 -0.5127,-1.40472 -0.0187,-1.85179 0.86345,-0.78141 2.37591,-0.83459 26.69096,-0.93837 l 23.75957,-0.10142 -0.009,18.33111 c -0.009,18.90186 -0.20349,28.22236 -0.62631,30.07397 -0.38373,1.68045 -1.12603,2.15793 -2.49595,1.60551 z"
       id="path15"
       transform="scale(0.26458333)" /><path
       style="fill:#9ebbe0;fill-opacity:1;stroke:none;stroke-width:0;stroke-dasharray:none"
       d="m 308.95698,596.41451 c -0.56524,-0.35812 -0.70996,-3.87249 -0.84961,-20.63196 l -0.14059,-16.87197 -3.95103,-0.0463 c -12.64729,-0.14809 -27.90414,-0.51643 -29.45374,-0.7111 -2.45474,-0.30837 -2.99902,-0.61967 -3.00551,-1.71898 -0.005,-0.77234 0.60212,-1.24052 1.94516,-1.50109 0.71489,-0.13869 8.27023,-0.26462 20.01674,-0.33361 l 18.86841,-0.11082 -0.10142,19.0829 c -0.12216,22.98335 -0.12722,23.03793 -2.13445,23.03066 -0.49651,-0.002 -1.03379,-0.0863 -1.19396,-0.18777 z"
       id="path16"
       transform="scale(0.26458333)" /><path
       style="fill:#9ebbe0;fill-opacity:1;stroke:none;stroke-width:0;stroke-dasharray:none"
       d="m 274.5432,594.53565 c -1.33577,-0.22417 -1.92462,-0.53433 -2.0824,-1.09684 -0.19089,-0.68057 -0.14321,-18.23324 0.0539,-19.84535 l 0.1371,-1.12123 h 11.3038 11.3038 v 10.96446 10.96447 l -5.92654,0.14072 c -6.24285,0.14822 -13.88851,0.145 -14.78967,-0.006 z m 16.44483,-11.06461 v -6.51386 h -7.04779 -7.04778 v 6.51386 6.51386 h 7.04778 7.04779 z"
       id="path17"
       transform="scale(0.26458333)" /><path
       style="fill:#9ebbe0;fill-opacity:1;stroke:none;stroke-width:0;stroke-dasharray:none"
       d="m 256.78668,612.41646 c -2.01395,-0.25641 -2.23179,-0.41659 -2.3931,-1.75976 -0.20619,-1.71684 -0.15451,-22.50513 0.0737,-29.64171 0.27001,-8.44381 0.47872,-9.39704 2.05751,-9.39704 0.93694,0 1.31253,0.59277 1.57074,2.47897 0.11083,0.80963 0.30566,7.67091 0.43295,15.24727 0.12728,7.57637 0.28372,14.84754 0.34764,16.15815 0.10786,2.21166 0.14932,2.39181 0.57691,2.50652 0.25338,0.068 2.71918,0.12648 5.47957,0.13001 8.77224,0.0112 27.31133,0.41949 29.30509,0.64534 1.05684,0.11972 2.10129,0.31389 2.32101,0.43147 1.03389,0.55333 1.02966,1.9048 -0.008,2.44121 -0.34336,0.17756 -1.66343,0.42373 -2.93348,0.54704 -2.85656,0.27735 -34.87074,0.46208 -36.83089,0.21253 z"
       id="path18"
       transform="scale(0.26458333)" /><path
       style="fill:#9ebbe0;fill-opacity:1;stroke:none;stroke-width:0;stroke-dasharray:none"
       d="m 248.58534,622.42956 c -2.93605,-0.26252 -3.02076,-0.3166 -3.20605,-2.04686 -0.23138,-2.16054 0.0567,-42.20859 0.32698,-45.45089 0.27473,-3.29611 0.62734,-4.24177 1.61777,-4.33868 0.87043,-0.0852 1.31812,0.44567 1.59727,1.89394 0.34898,1.8105 0.59618,11.25101 0.76079,29.05347 l 0.15127,16.36094 2.2436,0.13728 c 1.23398,0.0755 5.08781,0.13956 8.56406,0.14235 10.53821,0.008 30.36549,0.39579 32.47105,0.63431 2.65431,0.30069 3.20542,0.60239 3.21191,1.75834 0.008,1.38867 -1.4832,1.61515 -12.34225,1.87475 -10.02205,0.2396 -32.64021,0.22749 -35.3964,-0.0189 z"
       id="path19"
       transform="scale(0.26458333)" /><path
       style="fill:#9ebbe0;fill-opacity:1;stroke:none;stroke-width:0;stroke-dasharray:none"
       d="m 336.77177,596.65605 c -0.2497,-0.0403 -0.68217,-0.31636 -0.96106,-0.61349 l -0.50707,-0.54024 0.0374,-22.35368 c 0.0206,-12.29453 0.10275,-23.53875 0.18268,-24.98716 l 0.14532,-2.63347 24.16421,0.1008 c 24.73825,0.1032 26.22982,0.15486 27.0956,0.93838 0.494,0.44707 0.48442,1.39648 -0.0187,1.85179 -0.21869,0.19792 -0.96352,0.45468 -1.65516,0.57058 -1.84317,0.30887 -12.87877,0.58514 -30.11854,0.754 l -15.19258,0.14881 -0.1246,7.49908 c -0.59578,35.85655 -0.61493,36.46428 -1.20488,38.25187 -0.24804,0.75156 -0.97727,1.15237 -1.84258,1.01273 z"
       id="path20"
       transform="scale(0.26458333)" /><path
       style="fill:#9ebbe0;fill-opacity:1;stroke:none;stroke-width:0;stroke-dasharray:none"
       d="m 345.9513,597.16715 -0.58854,-0.50623 -0.0906,-5.79125 c -0.0498,-3.18518 -0.0189,-12.67408 0.0687,-21.08643 l 0.15932,-15.29519 19.88933,0.1097 c 20.3663,0.11234 21.74824,0.17074 22.6227,0.95608 0.53607,0.48143 0.39381,1.50561 -0.27733,1.99648 -0.34537,0.25262 -1.21269,0.46684 -2.45604,0.60665 -1.62423,0.18263 -15.57105,0.49699 -31.11036,0.70122 -2.19288,0.0288 -4.05167,0.11721 -4.13063,0.19641 -0.079,0.0792 -0.22984,6.23 -0.33529,13.66843 -0.19884,14.02628 -0.47738,21.59219 -0.85555,23.23866 -0.12101,0.52685 -0.37351,1.12751 -0.56111,1.33481 -0.49123,0.54281 -1.62628,0.47992 -2.33459,-0.12934 z"
       id="path21"
       transform="scale(0.26458333)" /></g></svg>
