<svg width="120" height="160" viewBox="0 0 120 160" fill="none" xmlns="http://www.w3.org/2000/svg">
<path d="M0.433537 148.083C0.762427 139.312 1.24828 135.898 2.27979 135.161C4.40264 133.655 4.30547 115.913 2.18264 115.913C-0.351315 115.913 0.418588 110.49 3.67758 105.401C5.32204 102.844 7.11597 100.487 7.68406 100.179C8.25214 99.8647 8.70811 97.615 8.70811 95.1848C8.70811 91.536 8.29699 90.5183 6.35356 89.3735C3.4683 87.6796 1.68182 84.3522 1.68182 80.6565C1.68182 78.4403 3.00486 76.6794 8.19982 71.9795C12.6473 67.9558 14.9196 65.1372 15.3382 63.1086C16.1455 59.2656 15.3083 57.4177 12.7594 57.4177C11.6382 57.4177 10.7188 57.0159 10.7188 56.5206C10.7188 56.0252 11.8251 55.6235 13.1705 55.6235C15.2635 55.6235 15.6821 55.1279 16.011 52.249L16.4071 48.8748L16.579 52.249C16.7285 55.2084 17.0574 55.6235 19.2625 55.6235C22.387 55.6235 22.5888 57.1968 19.5092 57.585C17.5358 57.8329 17.2667 58.3818 17.3415 61.8365C17.4386 65.3849 17.9843 66.262 22.6037 70.2054C25.4365 72.629 28.4415 75.4946 29.2861 76.5658C31.678 79.6253 31.2296 84.6601 28.2995 87.4788C26.7671 88.965 25.7879 90.9736 25.7879 92.6339V95.3655L30.4522 91.6898C33.0161 89.668 35.5052 88.0144 35.9835 88.0144C36.4544 88.0144 36.8431 84.9814 36.8431 81.2657C36.8431 77.5565 36.4096 74.517 35.8789 74.517C34.354 74.517 33.5916 68.893 34.7428 66.1749C35.5949 64.1731 35.4155 63.1487 33.8085 60.7854C31.1174 56.8353 31.2296 50.7495 34.0924 46.2235C35.3258 44.2752 39.6461 40.2716 43.6975 37.3324C50.8733 32.1237 55.0441 27.5576 56.4046 23.4535C56.8904 21.9605 56.6513 21.4316 55.4926 21.4316C52.9812 21.4316 53.6763 18.7669 56.427 17.8295C58.5348 17.1132 58.9386 16.3901 58.9386 13.3506C58.9386 9.81555 58.8638 9.7352 55.4253 9.7352C52.9661 9.7352 51.9122 9.3268 51.9122 8.3828C51.9122 7.44548 52.9661 7.03039 55.4253 7.03039C58.8638 7.03039 58.9386 6.96344 58.9386 3.35478C58.9386 -1.33179 61.3154 -1.01711 61.764 3.7297C62.048 6.72241 62.3545 7.03039 65.0306 7.03039C66.9889 7.03039 67.9831 7.48566 67.9831 8.3828C67.9831 9.28665 66.9739 9.7352 64.9183 9.7352C61.8836 9.7352 61.8537 9.78208 62.1527 14.0067C62.3993 17.4948 62.7805 18.2313 64.2157 18.0171C65.4116 17.8362 65.9722 18.3383 65.9722 19.5904C65.9722 20.6281 65.3146 21.4316 64.4699 21.4316C62.4965 21.4316 62.5264 21.6325 65.449 26.7876C66.8244 29.2113 69.8143 32.5454 72.1016 34.1858C85.8626 44.0543 88.0826 46.893 88.0826 54.5723C88.0826 57.6253 87.4623 59.6874 86.0644 61.2742C84.435 63.1354 84.2407 64.0258 85.063 65.9606C86.5054 69.3483 86.3112 72.3745 84.5694 73.9413C82.9176 75.4141 82.3419 88.0144 83.9266 88.0144C84.3976 88.0144 86.8867 89.668 89.4506 91.6966L94.1074 95.3655V92.1451C94.1074 90.371 93.6737 88.9182 93.1356 88.9182C91.6482 88.9182 89.0842 83.9437 89.0842 81.0648C89.0842 77.9717 90.2653 76.4117 97.5157 69.9309C102.554 65.4317 103.152 64.5011 103.152 61.1603C103.152 57.7726 102.92 57.4244 100.64 57.4244C97.2318 57.4244 97.4411 55.8176 100.894 55.4561C103.376 55.2017 103.623 54.8669 103.316 52.1487C103.114 50.361 103.376 49.3368 103.944 49.658C104.482 49.9527 104.804 51.4189 104.662 52.9119C104.437 55.2352 104.744 55.6235 106.792 55.6235C108.108 55.6235 109.184 56.0252 109.184 56.5206C109.184 57.0159 108.28 57.4244 107.166 57.4244C105.686 57.4244 105.118 58.0671 104.998 59.9016C104.684 64.8426 105.312 65.9673 111.71 71.906C116.928 76.7464 118.221 78.5073 118.221 80.7903C118.221 84.1579 116.741 87.0235 113.968 88.9985C110.604 91.3954 110.828 97.4946 114.461 102.683C119.731 110.202 121.091 115.913 117.608 115.913C115.59 115.913 115.59 133.715 117.608 135.161C118.625 135.884 119.14 139.406 119.499 148.083L120 160H0L0.433537 148.083ZM17.7526 152.803C17.7526 151.229 17.0798 151.009 12.3334 151.009C8.61094 151.009 6.74971 151.404 6.37598 152.267C5.54627 154.209 6.58526 154.61 12.3932 154.61C17.0798 154.61 17.7526 154.383 17.7526 152.803ZM38.9063 152.582C38.9435 151.464 38.9286 143.47 38.8764 134.806C38.7791 118.939 38.0242 114.467 34.8174 110.764C33.1131 108.803 33.046 108.796 31.3493 110.476C27.6193 114.165 26.8867 118.477 26.8345 136.835L26.797 154.604H32.8216C38.3828 154.604 38.8538 154.45 38.9136 152.582H38.9063ZM29.8317 140.886C29.8468 131.927 30.527 129.952 33.4047 130.448C35.849 130.87 36.4096 133.374 36.0209 142.017L35.692 149.208H29.8169L29.8317 140.886ZM30.0486 120.358C30.8857 112.545 34.0849 112.057 35.9387 119.461C37.0972 124.074 36.5891 124.911 32.6422 124.911H29.5553L30.0486 120.358ZM48.7056 149.884C48.4365 145.766 48.1075 145.117 46.1416 144.869C44.0264 144.601 43.8769 144.909 43.8769 149.596C43.8769 154.369 44.0039 154.604 46.4407 154.604C48.9074 154.604 48.9971 154.416 48.7056 149.884ZM64.2008 148.531C64.9781 127.736 62.4219 118.812 57.496 125.112C56.2475 126.712 55.9337 129.865 55.9337 140.859V154.604H63.9616L64.2008 148.531ZM76.0258 149.596C76.0258 144.909 75.8763 144.601 73.7684 144.869C71.795 145.117 71.4663 145.766 71.2047 149.884C70.9057 154.416 71.0029 154.604 73.4621 154.604C75.9062 154.604 76.0258 154.369 76.0258 149.596ZM93.0982 137.277C93.0982 119.421 92.4031 114.855 89.1591 111.266C87.35 109.265 87.1932 109.244 85.317 110.758C81.8487 113.57 81.0563 118.484 81.0563 136.935V154.61H93.1057L93.0982 137.283V137.277ZM84.2779 139.995C84.5322 131.8 84.7788 130.742 86.4532 130.455C89.3833 129.952 90.0635 131.894 90.0784 140.886L90.0934 149.208H83.994L84.2779 139.995ZM83.71 124.228C82.9774 123.157 84.6966 115.886 85.9523 114.761C86.6999 114.092 87.4174 114.058 88.0752 114.647C89.2488 115.692 91.0652 123.739 90.2877 124.429C89.473 125.165 84.248 124.998 83.71 124.228ZM113.699 152.803C113.699 151.799 112.256 151.39 107.921 151.183C102.629 150.935 102.15 151.076 102.15 152.803C102.15 154.537 102.629 154.677 107.921 154.423C112.256 154.222 113.699 153.82 113.699 152.803ZM17.7526 131.66V116.81H6.69739V125.701C6.69739 133.902 6.87679 134.699 8.96225 135.998L11.2196 137.411L8.96225 137.458C6.92911 137.505 6.69739 137.953 6.69739 142.01V146.503H17.7526V131.66ZM8.70811 142.01C8.70811 139.52 8.99213 139.306 12.2212 139.306C15.4653 139.306 15.7419 139.52 15.7419 142.01C15.7419 144.487 15.4653 144.708 12.2287 144.708C8.99215 144.708 8.71558 144.494 8.71558 142.01H8.70811ZM8.70811 125.36V118.611H15.7419V132.108H8.71558L8.70811 125.36ZM113.19 142.01C113.19 138.609 112.817 137.511 111.681 137.511C111.281 137.509 110.899 137.366 110.618 137.113C110.336 136.859 110.178 136.516 110.178 136.159C110.178 135.416 110.739 134.907 111.434 135.034C112.361 135.201 112.764 132.825 112.974 126.036L113.258 116.81H102.143V146.51H113.19V142.01ZM104.146 142.01C104.146 139.52 104.43 139.306 107.659 139.306C110.903 139.306 111.18 139.52 111.18 142.01C111.18 144.487 110.903 144.708 107.667 144.708C104.43 144.708 104.153 144.494 104.153 142.01H104.146ZM104.146 125.36V118.611H111.18V132.108H104.153L104.146 125.36ZM48.6981 136.386C48.4289 132.269 48.1002 131.619 46.1343 131.372C44.0189 131.104 43.8694 131.412 43.8694 136.098C43.8694 140.872 43.9965 141.106 46.4333 141.106C48.8999 141.106 48.9896 140.919 48.6981 136.386ZM76.0183 136.098C76.0183 131.412 75.8688 131.104 73.7609 131.372C71.7877 131.619 71.4588 132.269 71.1972 136.386C70.8981 140.919 70.9954 141.106 73.4546 141.106C75.8987 141.106 76.0183 140.872 76.0183 136.098ZM48.6981 122.882C48.4289 118.772 48.1002 118.129 46.1343 117.874C44.0189 117.607 43.8694 117.915 43.8694 122.601C43.8694 127.368 43.9965 127.609 46.4333 127.609C48.8999 127.609 48.9896 127.422 48.6981 122.882ZM76.0183 122.601C76.0183 117.915 75.8688 117.607 73.7609 117.874C71.7877 118.122 71.4588 118.772 71.1972 122.882C70.8981 127.422 70.9954 127.609 73.4546 127.609C75.8987 127.609 76.0183 127.368 76.0183 122.601ZM68.7754 110.215C68.2894 103.339 65.8227 97.4276 62.7581 95.7605C61.6369 95.1513 60.1047 95.1311 58.2433 95.707C54.2668 96.9323 51.688 102.181 51.1125 110.209L50.6416 116.81H69.2537L68.7754 110.215ZM56.1654 107.738C56.7634 100.273 58.7665 97.3741 61.577 99.8915C62.6536 100.856 63.3934 103.54 63.7224 107.738L64.2307 114.112H55.6572L56.1654 107.738ZM23.7772 114.34C23.7772 111.487 29.4955 102.02 32.9488 99.1415C42.2174 91.4289 54.3191 88.0144 65.9574 89.8221C81.729 92.2724 90.7735 99.5567 96.4769 114.406C96.8506 115.364 97.8447 115.913 98.8687 115.719C103.025 114.962 97.568 102.73 90.0934 96.035C72.266 80.0739 39.392 82.4105 25.7506 100.614C21.9234 105.723 18.3805 113.737 19.3372 115.123C20.3463 116.582 23.7772 115.973 23.7772 114.34ZM9.47801 107.591C12.0418 100.742 10.0012 100.621 6.0695 107.39C3.60284 111.635 3.40102 112.478 4.68668 113.195C6.66748 114.313 7.1982 113.697 9.47801 107.591ZM16.8705 109.131C17.917 106.673 19.0532 103.855 19.397 102.864L20.0249 101.063L17.7376 102.871C15.0019 105.013 11.3542 111.949 12.2661 113.268C13.4546 114.989 14.9495 113.637 16.8705 109.131ZM107.764 112.853C108.436 111.273 105.073 105.241 102.247 102.944C99.6611 100.856 99.6312 101.204 101.978 106.653C103.002 109.024 104.116 111.675 104.46 112.539C105.215 114.427 107.016 114.6 107.764 112.853ZM116.21 112.117C116.21 110.657 110.948 102.409 110.014 102.409C109.55 102.409 109.169 102.543 109.169 102.703C109.169 103.293 112.413 112.793 112.832 113.395C113.422 114.279 116.203 113.221 116.203 112.11L116.21 112.117ZM14.0825 97.0058C14.516 95.0776 15.2635 94.3078 16.7211 94.3078C18.3132 94.3078 18.7542 94.8969 18.7542 97.0058C18.7542 98.8135 19.2625 99.7106 20.2641 99.7106C21.3853 99.7106 21.7741 98.6595 21.7741 95.6602V91.6095H11.7279V95.6602C11.7279 100.246 13.178 101.083 14.0825 97.0058ZM101.134 97.0058C101.134 94.8969 101.582 94.3078 103.167 94.3078C104.624 94.3078 105.372 95.0776 105.805 97.0058C106.717 101.076 108.167 100.246 108.167 95.6602V91.6095H98.1213V95.6602C98.1213 98.6595 98.5099 99.7106 99.6312 99.7106C100.633 99.7106 101.134 98.8068 101.134 97.0058ZM12.1988 85.5438C11.7728 84.1846 11.3766 80.9242 11.3243 78.293L11.2196 73.5195L8.99215 76.0234C7.76628 77.4026 6.48062 79.6721 6.13679 81.0648C5.36687 84.2249 7.93073 88.0144 10.8608 88.0144C12.6697 88.0144 12.8566 87.6729 12.1988 85.5372V85.5438ZM100.132 86.7691C100.132 86.0861 99.4892 84.419 98.7117 83.0666C97.8217 81.3494 97.515 79.4355 97.8298 77.5632C98.5249 73.7337 97.6504 73.7002 95.094 77.4427C92.6647 81.0113 92.5526 84.1848 94.7575 86.374C96.7161 88.3089 100.132 88.5633 100.132 86.7758V86.7691ZM45.9474 84.7605C52.9214 82.906 67.7438 82.926 74.516 84.8073C77.2816 85.5705 79.8978 86.1999 80.3464 86.2134C80.7799 86.2134 81.004 83.9035 80.8397 81.0783C80.4658 74.6508 80.6452 74.6978 59.9476 74.6978C39.2425 74.6978 39.4295 74.6443 39.0482 81.0783C38.8837 83.9035 39.138 86.22 39.6237 86.22C40.1022 86.22 42.9499 85.564 45.9474 84.7605ZM41.8661 80.9309C41.8661 79.5048 42.5913 77.7976 43.4807 77.1414C44.8487 76.1171 45.3046 76.1975 46.493 77.6503C48.2721 79.8262 48.2495 80.3686 46.3137 82.1025C43.7947 84.3587 41.8661 83.8433 41.8661 80.9309ZM73.7609 82.8993C71.8475 82.4507 71.4364 79.4112 72.9912 77.2218C74.4711 75.1464 77.461 77.282 77.8422 80.6833C78.1636 83.5622 77.6852 83.8166 73.7609 82.8925V82.8993ZM52.0843 79.3174C52.3233 77.4427 53.0334 76.6929 54.7453 76.472C56.7783 76.2176 57.0399 76.5055 56.7559 78.7215C56.5167 80.5962 55.814 81.346 54.0949 81.5669C52.0617 81.8213 51.8001 81.5268 52.0843 79.3174ZM63.1019 80.9175C60.9194 79.6789 62.6684 76.1573 65.307 76.492C68.1924 76.8603 69.1117 81.7277 66.2936 81.7075C65.1753 81.6719 64.082 81.4013 63.1019 80.9175ZM83.3959 69.2212C83.3137 67.6144 83.0297 66.1012 82.7757 65.8737C81.8187 65.0167 55.1189 64.394 46.6201 65.0234C39.377 65.5656 37.6355 65.9941 36.7685 67.4335C36.1928 68.3977 35.9686 69.8839 36.2676 70.7275C36.7685 72.1336 38.9734 72.2675 60.1868 72.2139L83.5529 72.1536L83.3959 69.2212ZM39.8554 68.6721C39.8554 66.8712 40.3563 66.4226 42.3669 66.4226C44.3778 66.4226 44.8786 66.8712 44.8786 68.6721C44.8786 70.4731 44.3778 70.9218 42.3669 70.9218C40.3563 70.9218 39.8554 70.4731 39.8554 68.6721ZM48.8999 68.6721C48.8999 66.8712 49.4007 66.4226 51.404 66.4226C53.4222 66.4226 53.9155 66.8712 53.9155 68.6721C53.9155 70.4731 53.4147 70.9218 51.404 70.9218C49.4007 70.9218 48.8925 70.4731 48.8925 68.6721H48.8999ZM57.6455 70.3594C57.2492 70.0045 56.9353 68.9533 56.9353 68.0161C56.9353 66.677 57.5332 66.3623 59.7009 66.5832C61.6818 66.7908 62.4591 67.3733 62.4591 68.6721C62.4591 70.4798 59.0955 71.6581 57.6455 70.3594ZM65.9722 68.6721C65.9722 66.8712 66.4731 66.4226 68.4839 66.4226C70.4945 66.4226 70.9954 66.8712 70.9954 68.6721C70.9954 70.4731 70.4945 70.9218 68.4839 70.9218C66.4731 70.9218 65.9722 70.4731 65.9722 68.6721ZM75.0167 68.6053C75.0167 66.7306 75.4353 66.349 77.2741 66.5832C77.9391 66.6357 78.5625 66.8958 79.0352 67.3179C79.5079 67.7401 79.8 68.2977 79.8604 68.893C80.122 70.5468 79.696 70.9218 77.5955 70.9218C75.4951 70.9218 75.0167 70.4933 75.0167 68.6118V68.6053ZM46.3884 53.8225C46.3884 47.9307 46.7173 46.6721 49.027 43.927C52.0843 40.2849 55.2534 34.9288 54.6704 34.3999C54.4462 34.1991 50.5667 37.4262 46.0521 41.5704C38.7791 48.2454 37.8448 49.4839 37.8448 52.4231C37.8448 57.7994 40.5282 61.2407 44.3778 60.8054C46.1791 60.598 46.3809 59.8948 46.3809 53.8225H46.3884Z" fill="#FDFDFD"/>
</svg>
