<svg xmlns="http://www.w3.org/2000/svg" viewBox="0 0 213.991 214.062"><path d="M53.447 213.475c-32.455-2.865-46.497-14.273-51.672-41.98C.212 163.13 0 155.432 0 106.995c0-48.436.212-56.133 1.775-64.5C6.31 18.21 18.209 6.311 42.495 1.775 50.862.212 58.56 0 106.995 0c48.437 0 56.134.212 64.5 1.775 24.287 4.536 36.185 16.434 40.721 40.72 1.563 8.367 1.775 16.064 1.775 64.5 0 48.437-.212 56.134-1.775 64.5-3.409 18.251-10.945 29.336-24.22 35.626-12.737 6.035-18.17 6.537-74.5 6.885-27.776.172-54.797-.067-60.05-.53zm79.786-46.928c10.883-1.053 17.91-3.924 23.65-9.664 8.502-8.503 10.558-18.217 10.558-49.888 0-31.67-2.056-41.384-10.558-49.887-8.503-8.502-18.217-10.558-49.888-10.558-31.583 0-41.299 2.042-49.889 10.488-8.447 8.305-10.556 18.289-10.556 49.957 0 22.88 1.169 34.143 4.23 40.738 5.063 10.913 15.037 17.455 28.59 18.753 11.099 1.062 43.139 1.1 53.863.061zm-58.38-11.973c-5.336-1.327-10.253-5.044-13.116-9.916l-2.742-4.663v-66l2.777-4.723a21.33 21.33 0 0 1 7.5-7.5l4.723-2.777h66l4.724 2.777a21.33 21.33 0 0 1 7.5 7.5l2.776 4.723v66l-2.776 4.724a21.338 21.338 0 0 1-7.5 7.5l-4.724 2.776-31 .18c-17.05.099-32.413-.172-34.141-.601zm43.133-18.822c7.022-2.219 15.548-10.846 17.992-18.205 4.01-12.073 1.423-23.306-7.403-32.132-8.825-8.825-20.058-11.413-32.131-7.402-7.507 2.493-15.938 10.924-18.431 18.43-6.124 18.436 4.734 37.273 23.614 40.972 5.05.99 9.349.552 16.359-1.663zm-18.99-10.65c-4.165-1.824-9.236-7.275-10.593-11.385-1.677-5.084-.681-13.469 2.08-17.497 4.197-6.127 8.409-8.225 16.512-8.225 5.913 0 7.755.417 10.664 2.41 7.002 4.798 10.073 12.687 8.403 21.588-.813 4.336-6.75 11.257-11.284 13.155-4.052 1.696-11.859 1.674-15.783-.046zm45.045-45.061c1.35-1.35 2.454-3.62 2.454-5.046 0-3.334-4.165-7.5-7.5-7.5-3.334 0-7.5 4.166-7.5 7.5 0 3.335 4.166 7.5 7.5 7.5 1.425 0 3.696-1.104 5.046-2.454z"/><path fill="#fff" d="M84.006 176.903c-14.107-.664-21.375-2.575-28.88-7.592-8.998-6.017-13.84-14.514-15.775-27.685-1.41-9.597-1.972-45.064-.941-59.381 1.362-18.92 4.955-28.196 13.764-35.544C61.872 38.613 72.37 36.7 107.038 36.7c36.121 0 46.432 2.089 56.09 11.363 5.53 5.31 8.292 10.153 10.19 17.87 1.905 7.75 2.41 14.296 2.688 34.913.573 42.37-1.918 54.825-13.068 65.333-6.042 5.694-14.616 9.05-26.146 10.233-6.982.716-41.22 1.035-52.786.49zm64.739-15.724c5.493-3.378 8.037-5.914 11.124-11.09l2.694-4.516V68.497l-2.17-3.77c-3.11-5.397-6.142-8.55-11.147-11.59l-4.295-2.61H69.022l-4.02 2.44c-4.993 3.03-8.074 6.173-11.125 11.35l-2.363 4.01v77.269l2.206 3.858c3.082 5.391 7.101 9.38 11.695 11.61 4.804 2.332 4.697 2.326 46.01 2.423l33.437.079z"/><path fill="#fff" d="M102.108 143.58c-14.012-2.269-25.246-11.734-29.99-25.27-1.282-3.656-1.374-4.434-1.36-11.518.012-7.01.118-7.895 1.364-11.46 3.526-10.09 13.17-19.778 22.937-23.04 14.427-4.821 27.653-1.304 38.604 10.266 4.4 4.648 7.74 10.606 9.18 16.373 1.206 4.831.744 14.2-.958 19.418-2.709 8.306-9.736 16.582-18.029 21.232-5.213 2.923-16.065 4.918-21.748 3.999zm15.018-14.87c3.594-1.758 9.514-7.907 11.566-12.013 2.743-5.489 2.6-13.5-.357-20.02-1.911-4.216-6.549-9.044-10.512-10.944-3.633-1.742-8.822-2.268-15.143-1.534-6.673.774-10.551 2.9-14.574 7.99-4.997 6.321-6.22 18.735-2.521 25.573 1.583 2.928 5.639 7.432 8.435 9.37 3.829 2.653 6.386 3.225 13.729 3.069 6.075-.13 6.848-.253 9.377-1.49zM136.792 81.602c-3.137-1.425-5.41-4.966-4.907-7.646.388-2.07 4.027-5.7 6.104-6.09 2.946-.552 6.97 2.398 8.01 5.873.43 1.434.383 1.834-.415 3.482-.987 2.039-2.764 3.74-4.8 4.592-1.68.704-2.017.686-3.992-.21z"/><path fill="#fff" d="M80.936 176.512c-16.36-1.097-27.51-6.193-34.267-15.662-5.064-7.097-7.094-14.789-7.961-30.17-.63-11.181-.636-42.125-.008-49.54 1.645-19.449 5.766-28.697 16.06-36.043 9.083-6.481 19.029-8.016 52.067-8.031 35.153-.017 44.778 1.684 54.338 9.605 3.138 2.601 7.17 7.476 8.735 10.564 2.441 4.817 4.215 11.867 5.09 20.235.754 7.199.753 51.695 0 58.51-1.108 10.024-3.08 17.486-5.834 22.069-5.717 9.515-15.045 15.385-27.805 17.496-2.057.34-7.593.791-12.302 1.003-10.125.456-41.13.432-48.113-.036zm62.387-23.205c4.78-2.887 6.995-5.056 9.68-9.48l2.345-3.861v-65.89l-1.89-3.222c-2.705-4.615-5.343-7.31-9.699-9.91l-3.737-2.23H73.95L70.451 60.8c-4.344 2.59-7.025 5.277-9.68 9.702l-2.057 3.429v66.055l1.92 3.298c2.682 4.609 6.18 8.02 10.177 9.925 4.18 1.993 4.087 1.989 40.037 2.072l29.096.067z"/><path fill="#fff" d="M100.507 143.095c-5.074-1.253-10.061-3.377-13.659-5.817-5.535-3.754-11.437-11.175-13.836-17.398-1.945-5.043-2.176-6.735-1.964-14.43.154-5.63.35-7.417 1.01-9.233 3.516-9.668 10.865-17.893 19.824-22.186 5.591-2.68 8.368-3.273 15.353-3.282 5.071-.006 6.347.13 8.97.949 12.287 3.838 23.193 14.988 26.268 26.853.752 2.902.865 11.144.208 15.208-1.051 6.51-4.501 12.927-9.974 18.552-7.13 7.327-14.856 10.643-25.676 11.017-2.691.093-5.627-.012-6.524-.233zm14.94-18.034c2.99-1.463 7.915-6.579 9.622-9.994 2.281-4.566 2.162-11.23-.298-16.655-1.59-3.507-5.447-7.523-8.744-9.104-3.022-1.449-7.34-1.886-12.597-1.276-5.552.644-8.778 2.413-12.125 6.647-4.156 5.258-5.175 15.585-2.097 21.274 1.317 2.435 4.69 6.183 7.018 7.795 3.184 2.207 5.312 2.682 11.42 2.552 5.054-.107 5.697-.21 7.801-1.24z"/><path fill="#fff" d="M80.936 176.512c-21.18-1.42-33.88-9.643-39.107-25.32-2.387-7.162-2.95-12.567-3.517-33.833-.467-17.457-.05-34.125 1.07-42.775 1.564-12.081 4.775-19.72 10.77-25.623 6.639-6.537 14.042-9.555 27.114-11.054 10.522-1.207 50.507-1.088 60.957.18 13.533 1.644 21.514 5.602 28.163 13.969 2.89 3.638 4.387 6.463 5.792 10.94 2.726 8.685 3.181 13.898 3.439 39.4.29 28.82-.512 39.75-3.607 49.078-4.36 13.149-14.966 21.475-30.66 24.07-2.056.34-7.592.792-12.301 1.004-10.125.456-41.13.432-48.113-.036zm62.53-23.286c4.455-2.684 7.076-5.305 9.76-9.76l2.122-3.522V74.115l-1.937-3.317c-2.477-4.244-5.96-7.738-10.127-10.164l-3.298-1.92H74.004L70.54 60.77c-4.389 2.6-7.17 5.381-9.77 9.77l-2.054 3.465v66.088l2.112 3.449c2.814 4.592 5.998 7.668 9.97 9.632 4.107 2.03 3.924 2.02 40.255 2.106l28.892.069z"/><path fill="#fff" d="M136.792 81.602c-3.137-1.425-5.41-4.966-4.907-7.646.388-2.07 4.027-5.7 6.104-6.09 2.946-.552 6.97 2.398 8.01 5.873.43 1.434.383 1.834-.415 3.482-.987 2.039-2.764 3.74-4.8 4.592-1.68.704-2.017.686-3.992-.21z"/></svg>