<svg width="40" height="50" viewBox="0 0 40 50" fill="none" xmlns="http://www.w3.org/2000/svg">
<path d="M0.144512 46.2759C0.254142 43.5351 0.416095 42.468 0.759931 42.2379C1.46755 41.7671 1.43516 36.2228 0.727546 36.2228C-0.117105 36.2228 0.139529 34.528 1.22586 32.9379C1.77401 32.1387 2.37199 31.4023 2.56135 31.3061C2.75071 31.2077 2.9027 30.5047 2.9027 29.7453C2.9027 28.605 2.76566 28.287 2.11785 27.9292C1.1561 27.3999 0.560607 26.3601 0.560607 25.2052C0.560607 24.5126 1.00162 23.9623 2.73327 22.4936C4.21577 21.2362 4.97321 20.3554 5.11274 19.7214C5.38183 18.5205 5.10277 17.943 4.25314 17.943C3.8794 17.943 3.57294 17.8175 3.57294 17.6627C3.57294 17.5079 3.94169 17.3823 4.39018 17.3823C5.08782 17.3823 5.22735 17.2275 5.33698 16.3278L5.46904 15.2734L5.52634 16.3278C5.57618 17.2526 5.68581 17.3823 6.42083 17.3823C7.46234 17.3823 7.5296 17.874 6.50305 17.9953C5.84527 18.0728 5.75557 18.2443 5.78049 19.3239C5.81287 20.4328 5.99476 20.7069 7.53455 21.9392C8.47885 22.6966 9.48051 23.5921 9.76204 23.9268C10.5593 24.8829 10.4099 26.4563 9.43318 27.3371C8.92238 27.8016 8.59595 28.4292 8.59595 28.9481V29.8017L10.1507 28.6531C11.0054 28.0212 11.8351 27.5045 11.9945 27.5045C12.1515 27.5045 12.281 26.5567 12.281 25.3955C12.281 24.2364 12.1365 23.2866 11.9596 23.2866C11.4513 23.2866 11.1972 21.5291 11.5809 20.6797C11.865 20.0541 11.8052 19.734 11.2695 18.9954C10.3725 17.761 10.4099 15.8592 11.3641 14.4448C11.7753 13.836 13.2154 12.5849 14.5658 11.6664C16.9578 10.0386 18.348 8.61176 18.8015 7.3292C18.9635 6.86264 18.8838 6.69737 18.4975 6.69737C17.6604 6.69737 17.8921 5.86464 18.809 5.57172C19.5116 5.34788 19.6462 5.12192 19.6462 4.17205C19.6462 3.06736 19.6213 3.04225 18.4751 3.04225C17.6554 3.04225 17.3041 2.91463 17.3041 2.61963C17.3041 2.32671 17.6554 2.197 18.4751 2.197C19.6213 2.197 19.6462 2.17607 19.6462 1.04837C19.6462 -0.416183 20.4385 -0.317848 20.588 1.16553C20.6827 2.10075 20.7848 2.197 21.6769 2.197C22.3296 2.197 22.661 2.33927 22.661 2.61963C22.661 2.90208 22.3246 3.04225 21.6394 3.04225C20.6279 3.04225 20.6179 3.0569 20.7176 4.37709C20.7998 5.46713 20.9268 5.69727 21.4052 5.63034C21.8039 5.57383 21.9907 5.73073 21.9907 6.122C21.9907 6.44628 21.7715 6.69737 21.49 6.69737C20.8322 6.69737 20.8421 6.76015 21.8163 8.37114C22.2748 9.12852 23.2714 10.1705 24.0339 10.6831C28.6209 13.767 29.3609 14.6541 29.3609 17.0538C29.3609 18.0079 29.1541 18.6523 28.6881 19.1482C28.145 19.7298 28.0802 20.0081 28.3543 20.6127C28.8351 21.6713 28.7704 22.617 28.1898 23.1067C27.6392 23.5669 27.4473 27.5045 27.9755 27.5045C28.1325 27.5045 28.9622 28.0212 29.8169 28.6552L31.3691 29.8017V28.7954C31.3691 28.2409 31.2246 27.7869 31.0452 27.7869C30.5494 27.7869 29.6947 26.2324 29.6947 25.3327C29.6947 24.3662 30.0884 23.8787 32.5052 21.8534C34.1846 20.4474 34.3839 20.1566 34.3839 19.1126C34.3839 18.0539 34.3067 17.9451 33.5468 17.9451C32.4106 17.9451 32.4804 17.443 33.6315 17.33C34.4587 17.2505 34.5409 17.1459 34.4387 16.2965C34.3715 15.7378 34.4587 15.4177 34.648 15.5181C34.8274 15.6102 34.9345 16.0684 34.8872 16.535C34.8125 17.261 34.9146 17.3823 35.5974 17.3823C36.0359 17.3823 36.3946 17.5079 36.3946 17.6627C36.3946 17.8175 36.0932 17.9451 35.7219 17.9451C35.2286 17.9451 35.0392 18.146 34.9994 18.7192C34.8947 20.2633 35.104 20.6148 37.2368 22.4706C38.9759 23.9833 39.4069 24.5335 39.4069 25.247C39.4069 26.2993 38.9136 27.1948 37.9892 27.812C36.868 28.5611 36.9428 30.4671 38.1537 32.0885C39.9103 34.4381 40.3637 36.2228 39.2026 36.2228C38.5299 36.2228 38.5299 41.786 39.2026 42.2379C39.5415 42.4638 39.7134 43.5643 39.8331 46.2759L40 50H0L0.144512 46.2759ZM5.91752 47.7509C5.91752 47.2592 5.69328 47.1902 4.11112 47.1902C2.87031 47.1902 2.2499 47.3136 2.12533 47.5835C1.84876 48.1903 2.19509 48.3158 4.13105 48.3158C5.69328 48.3158 5.91752 48.2446 5.91752 47.7509ZM12.9688 47.6818C12.9812 47.3324 12.9762 44.8343 12.9588 42.127C12.9264 37.1685 12.6747 35.7708 11.6058 34.6138C11.0377 34.0008 11.0153 33.9987 10.4498 34.5239C9.20643 35.6767 8.96225 37.0241 8.94482 42.7609L8.93235 48.3137H10.9405C12.7943 48.3137 12.9513 48.2656 12.9712 47.6818H12.9688ZM9.94391 44.0267C9.94892 41.2273 10.1757 40.6101 11.1349 40.765C11.9497 40.8968 12.1365 41.6793 12.007 44.3803L11.8973 46.6274H9.93895L9.94391 44.0267ZM10.0162 37.612C10.2952 35.1704 11.3616 35.0177 11.9796 37.3316C12.3657 38.7732 12.1964 39.0347 10.8807 39.0347H9.85175L10.0162 37.612ZM16.2352 46.8387C16.1455 45.552 16.0358 45.349 15.3805 45.2716C14.6755 45.1879 14.6256 45.2841 14.6256 46.7487C14.6256 48.2405 14.668 48.3137 15.4802 48.3137C16.3025 48.3137 16.3324 48.2551 16.2352 46.8387ZM21.4003 46.4161C21.6594 39.9176 20.8073 37.1287 19.1653 39.0975C18.7492 39.5975 18.6446 40.5829 18.6446 44.0184V48.3137H21.3205L21.4003 46.4161ZM25.3419 46.7487C25.3419 45.2841 25.2921 45.1879 24.5895 45.2716C23.9317 45.349 23.8221 45.552 23.7349 46.8387C23.6352 48.2551 23.6676 48.3137 24.4874 48.3137C25.3021 48.3137 25.3419 48.2405 25.3419 46.7487ZM31.0327 42.899C31.0327 37.3191 30.801 35.8922 29.7197 34.7708C29.1167 34.1452 29.0644 34.1389 28.439 34.6118C27.2829 35.4905 27.0188 37.0262 27.0188 42.7923V48.3158H31.0352L31.0327 42.9011V42.899ZM28.0926 43.7484C28.1774 41.1876 28.2596 40.857 28.8177 40.7671C29.7944 40.6101 30.0212 41.2169 30.0261 44.0267L30.0311 46.6274H27.998L28.0926 43.7484ZM27.9033 38.8213C27.6591 38.4865 28.2322 36.2144 28.6508 35.8629C28.9 35.6536 29.1391 35.6432 29.3584 35.8273C29.7496 36.1537 30.3551 38.6686 30.0959 38.884C29.8243 39.1142 28.0827 39.0619 27.9033 38.8213ZM37.8996 47.7509C37.8996 47.437 37.4187 47.3095 35.9736 47.2446C34.2095 47.1672 34.0501 47.2111 34.0501 47.7509C34.0501 48.2928 34.2095 48.3367 35.9736 48.2572C37.4187 48.1944 37.8996 48.0689 37.8996 47.7509ZM5.91752 41.1437V36.5031H2.23246V39.2816C2.23246 41.8445 2.29226 42.0935 2.98742 42.4994L3.73987 42.9409L2.98742 42.9555C2.3097 42.9702 2.23246 43.1104 2.23246 44.3782V45.7821H5.91752V41.1437ZM2.9027 44.3782C2.9027 43.5999 2.99738 43.533 4.07375 43.533C5.1551 43.533 5.24729 43.5999 5.24729 44.3782C5.24729 45.1523 5.15509 45.2214 4.07624 45.2214C2.99738 45.2214 2.90519 45.1544 2.90519 44.3782H2.9027ZM2.9027 39.1749V37.0659H5.24729V41.2838H2.90519L2.9027 39.1749ZM37.7301 44.3782C37.7301 43.3154 37.6056 42.9722 37.2269 42.9722C37.0938 42.9717 36.9664 42.9269 36.8726 42.8477C36.7787 42.7685 36.726 42.6614 36.726 42.5496C36.726 42.3174 36.9129 42.1584 37.1446 42.1981C37.4535 42.2504 37.5881 41.5077 37.6578 39.3862L37.7526 36.5031H34.0475V45.7842H37.7301V44.3782ZM34.7153 44.3782C34.7153 43.5999 34.81 43.533 35.8864 43.533C36.9677 43.533 37.0599 43.5999 37.0599 44.3782C37.0599 45.1523 36.9677 45.2214 35.8889 45.2214C34.81 45.2214 34.7178 45.1544 34.7178 44.3782H34.7153ZM34.7153 39.1749V37.0659H37.0599V41.2838H34.7178L34.7153 39.1749ZM16.2327 42.6207C16.143 41.334 16.0334 41.1311 15.3781 41.0537C14.673 40.97 14.6231 41.0663 14.6231 42.5308C14.6231 44.0225 14.6655 44.0958 15.4778 44.0958C16.3 44.0958 16.3299 44.0372 16.2327 42.6207ZM25.3394 42.5308C25.3394 41.0663 25.2896 40.97 24.587 41.0537C23.9292 41.1311 23.8196 41.334 23.7324 42.6207C23.6327 44.0372 23.6651 44.0958 24.4849 44.0958C25.2996 44.0958 25.3394 44.0225 25.3394 42.5308ZM16.2327 38.4008C16.143 37.1162 16.0334 36.9153 15.3781 36.8357C14.673 36.7521 14.6231 36.8483 14.6231 38.3129C14.6231 39.8025 14.6655 39.8778 15.4778 39.8778C16.3 39.8778 16.3299 39.8193 16.2327 38.4008ZM25.3394 38.3129C25.3394 36.8483 25.2896 36.7521 24.587 36.8357C23.9292 36.9132 23.8196 37.1162 23.7324 38.4008C23.6327 39.8193 23.6651 39.8778 24.4849 39.8778C25.2996 39.8778 25.3394 39.8025 25.3394 38.3129ZM22.9251 34.4423C22.7631 32.2936 21.9409 30.4461 20.9194 29.9252C20.5456 29.7348 20.0349 29.7285 19.4144 29.9084C18.0889 30.2913 17.2293 31.9316 17.0375 34.4402L16.8805 36.5031H23.0846L22.9251 34.4423ZM18.7218 33.6682C18.9211 31.3353 19.5888 30.4294 20.5257 31.2161C20.8845 31.5174 21.1311 32.3563 21.2408 33.6682L21.4102 35.66H18.5524L18.7218 33.6682ZM7.92574 35.7311C7.92574 34.8398 9.83182 31.8814 10.9829 30.9817C14.0725 28.5715 18.1064 27.5045 21.9858 28.0694C27.243 28.8351 30.2578 31.1115 32.159 35.752C32.2835 36.0512 32.6149 36.2228 32.9562 36.1621C34.3416 35.9257 32.5227 32.1032 30.0311 30.0109C24.0887 25.0231 13.1307 25.7533 8.58354 31.442C7.3078 33.0384 6.12682 35.5428 6.44574 35.9759C6.78209 36.432 7.92574 36.2416 7.92574 35.7311ZM3.15934 33.6221C4.01395 31.4818 3.33375 31.4441 2.02317 33.5594C1.20095 34.8859 1.13367 35.1495 1.56223 35.3733C2.22249 35.7227 2.3994 35.5302 3.15934 33.6221ZM5.62351 34.1033C5.97234 33.3355 6.35106 32.4546 6.46567 32.145L6.67495 31.5822L5.91254 32.1471C5.00062 32.8166 3.78472 34.9841 4.0887 35.3963C4.48486 35.934 4.98317 35.5114 5.62351 34.1033ZM35.9212 35.2666C36.1455 34.7728 35.0242 32.8877 34.0825 32.1701C33.2204 31.5174 33.2104 31.6261 33.9928 33.3292C34.3341 34.0699 34.7053 34.8984 34.8199 35.1683C35.0716 35.7583 35.6721 35.8127 35.9212 35.2666ZM38.7367 35.0364C38.7367 34.5803 36.9827 32.0028 36.6712 32.0028C36.5167 32.0028 36.3896 32.0446 36.3896 32.0948C36.3896 32.2789 37.471 35.2478 37.6105 35.4361C37.8074 35.7123 38.7342 35.3817 38.7342 35.0344L38.7367 35.0364ZM4.69415 30.3143C4.83866 29.7117 5.08782 29.4712 5.57369 29.4712C6.10439 29.4712 6.25139 29.6553 6.25139 30.3143C6.25139 30.8792 6.42083 31.1596 6.75469 31.1596C7.12845 31.1596 7.25803 30.8311 7.25803 29.8938V28.628H3.9093V29.8938C3.9093 31.3269 4.39267 31.5885 4.69415 30.3143ZM33.7112 30.3143C33.7112 29.6553 33.8607 29.4712 34.3889 29.4712C34.8748 29.4712 35.1239 29.7117 35.2684 30.3143C35.5724 31.5864 36.0558 31.3269 36.0558 29.8938V28.628H32.7071V29.8938C32.7071 30.8311 32.8366 31.1596 33.2104 31.1596C33.5443 31.1596 33.7112 30.8771 33.7112 30.3143ZM4.06627 26.7324C3.92425 26.3077 3.7922 25.2888 3.77476 24.4666L3.73987 22.9748L2.99738 23.7573C2.58876 24.1883 2.16021 24.8975 2.0456 25.3327C1.78896 26.3203 2.64358 27.5045 3.62028 27.5045C4.22324 27.5045 4.28553 27.3978 4.06627 26.7304V26.7324ZM33.3773 27.1153C33.3773 26.9019 33.1631 26.3809 32.9039 25.9583C32.6072 25.4217 32.505 24.8236 32.6099 24.2385C32.8416 23.0418 32.5501 23.0313 31.698 24.2008C30.8882 25.316 30.8509 26.3078 31.5858 26.9919C32.2387 27.5965 33.3773 27.676 33.3773 27.1174V27.1153ZM15.3158 26.4877C17.6405 25.9081 22.5813 25.9144 24.8387 26.5023C25.7605 26.7408 26.6326 26.9375 26.7821 26.9417C26.9266 26.9417 27.0013 26.2198 26.9466 25.337C26.8219 23.3284 26.8817 23.3431 19.9825 23.3431C13.0808 23.3431 13.1432 23.3263 13.0161 25.337C12.9612 26.2198 13.046 26.9437 13.2079 26.9437C13.3674 26.9437 14.3166 26.7387 15.3158 26.4877ZM13.9554 25.2909C13.9554 24.8452 14.1971 24.3118 14.4936 24.1067C14.9496 23.7866 15.1015 23.8117 15.4977 24.2657C16.0907 24.9457 16.0832 25.1152 15.4379 25.657C14.5982 26.3621 13.9554 26.201 13.9554 25.2909ZM24.587 25.906C23.9492 25.7658 23.8121 24.816 24.3304 24.1318C24.8237 23.4832 25.8203 24.1506 25.9474 25.2135C26.0545 26.1132 25.8951 26.1927 24.587 25.9039V25.906ZM17.3614 24.7867C17.4411 24.2008 17.6778 23.9665 18.2484 23.8975C18.9261 23.818 19.0133 23.908 18.9186 24.6005C18.8389 25.1863 18.6047 25.4206 18.0316 25.4897C17.3539 25.5692 17.2667 25.4771 17.3614 24.7867ZM21.034 25.2867C20.3065 24.8997 20.8895 23.7992 21.769 23.9038C22.7308 24.0188 23.0372 25.5399 22.0979 25.5336C21.7251 25.5225 21.3607 25.4379 21.034 25.2867ZM27.7986 21.6316C27.7712 21.1295 27.6766 20.6566 27.5919 20.5855C27.2729 20.3177 18.373 20.1231 15.54 20.3198C13.1257 20.4892 12.5452 20.6232 12.2562 21.073C12.0643 21.3743 11.9895 21.8387 12.0892 22.1023C12.2562 22.5418 12.9911 22.5836 20.0623 22.5668L27.851 22.548L27.7986 21.6316ZM13.2851 21.46C13.2851 20.8972 13.4521 20.7571 14.1223 20.7571C14.7926 20.7571 14.9595 20.8972 14.9595 21.46C14.9595 22.0228 14.7926 22.1631 14.1223 22.1631C13.4521 22.1631 13.2851 22.0228 13.2851 21.46ZM16.3 21.46C16.3 20.8972 16.4669 20.7571 17.1347 20.7571C17.8074 20.7571 17.9718 20.8972 17.9718 21.46C17.9718 22.0228 17.8049 22.1631 17.1347 22.1631C16.4669 22.1631 16.2975 22.0228 16.2975 21.46H16.3ZM19.2152 21.9873C19.0831 21.8764 18.9784 21.5479 18.9784 21.255C18.9784 20.8366 19.1777 20.7382 19.9003 20.8073C20.5606 20.8721 20.8197 21.0541 20.8197 21.46C20.8197 22.0249 19.6985 22.3932 19.2152 21.9873ZM21.9907 21.46C21.9907 20.8972 22.1577 20.7571 22.828 20.7571C23.4982 20.7571 23.6651 20.8972 23.6651 21.46C23.6651 22.0228 23.4982 22.1631 22.828 22.1631C22.1577 22.1631 21.9907 22.0228 21.9907 21.46ZM25.0056 21.4392C25.0056 20.8533 25.1451 20.7341 25.758 20.8073C25.9797 20.8237 26.1875 20.9049 26.3451 21.0369C26.5026 21.1688 26.6 21.343 26.6201 21.5291C26.7073 22.0459 26.5653 22.1631 25.8652 22.1631C25.165 22.1631 25.0056 22.0292 25.0056 21.4412V21.4392ZM15.4628 16.8195C15.4628 14.9783 15.5724 14.585 16.3423 13.7272C17.3614 12.589 18.4178 10.9153 18.2235 10.75C18.1487 10.6872 16.8556 11.6957 15.3507 12.9908C12.9264 15.0767 12.6149 15.4637 12.6149 16.3822C12.6149 18.0623 13.5094 19.1377 14.7926 19.0017C15.393 18.9369 15.4603 18.7171 15.4603 16.8195H15.4628Z" fill="#333333"/>
</svg>
