<svg xmlns="http://www.w3.org/2000/svg" viewBox="0 0 213.991 214.062"><path d="M53.447 213.475c-32.455-2.865-46.497-14.273-51.672-41.98C.212 163.13 0 155.432 0 106.995c0-48.436.212-56.133 1.775-64.5C6.31 18.21 18.209 6.311 42.495 1.775 50.862.212 58.56 0 106.995 0c48.437 0 56.134.212 64.5 1.775 24.287 4.536 36.185 16.434 40.721 40.72 1.563 8.367 1.775 16.064 1.775 64.5 0 48.437-.212 56.134-1.775 64.5-3.409 18.251-10.945 29.336-24.22 35.626-12.737 6.035-18.17 6.537-74.5 6.885-27.776.172-54.797-.067-60.05-.53zm73.257-46.278c4.24-1.355 9.766-3.669 12.281-5.143l4.574-2.68-4.128-4.69c-2.27-2.578-4.422-4.66-4.782-4.627-.36.034-3.129 1.212-6.154 2.62-18.846 8.766-39.9 5.262-55.38-9.219-10.397-9.726-15.62-21.943-15.62-36.539 0-25.005 17.952-45.689 43-49.543 21.479-3.304 43.147 8.586 52.839 28.994 3.193 6.725 3.566 8.428 3.966 18.136.645 15.661-1.895 21.39-9.484 21.39-2.667 0-4.184-.703-5.95-2.756-2.13-2.477-2.37-3.708-2.37-12.163 0-15.686-5.724-26.25-17.46-32.227-5.858-2.983-16.707-4.107-23.056-2.39-14.244 3.853-24.786 19.401-23.068 34.022 2.624 22.322 25.822 34.922 46.166 25.073 2.284-1.105 4.954-2.895 5.933-3.976 1.755-1.94 1.838-1.913 6.027 1.949 6.412 5.91 12.63 7.25 20.776 4.475 6.15-2.096 11.664-8.364 14.122-16.054 2.394-7.487 2.435-21.396.089-30.354-5.445-20.79-21.847-38.22-41.951-44.575-35.771-11.308-71.834 8.934-81.162 45.556-2.419 9.498-1.558 26.198 1.818 35.261 12.23 32.834 46.349 49.882 78.974 39.46zm-24.209-41.855c-8.801-2.556-14.71-11.201-13.668-19.999.774-6.532 3.807-11.259 9.289-14.47 3.827-2.244 5.329-2.55 10.792-2.202 7.486.476 12.401 3.579 15.597 9.843 7.379 14.463-6.468 31.342-22.01 26.828z"/><path fill="#ffff43" d="M99.692 169.565c-22.755-2.856-42.816-18.908-51.396-41.125-2.452-6.35-3.216-11.555-3.23-22.02-.012-10.179.277-12.13 2.932-19.776 3.117-8.978 8.2-17.187 14.794-23.888 17.084-17.366 41.586-23.09 65.179-15.228 20.369 6.788 37 25.587 41.457 46.863.898 4.284 1.249 15.225.65 20.293-.915 7.763-3.5 13.504-8.206 18.228-4.294 4.31-9.896 6.425-15.873 5.99-3.922-.284-7.662-2.105-11.853-5.77-3.973-3.474-4.397-3.57-6.734-1.513-2.468 2.172-7.44 4.718-11.434 5.853-4.21 1.196-12.051 1.31-16.082.234-3.74-.998-9.551-3.975-12.473-6.389-8.014-6.621-12.579-17.853-11.216-27.597 1.503-10.739 8.386-20.438 17.776-25.048 4.344-2.133 7.325-2.833 12.06-2.833 10.675 0 18.31 3.08 24.764 9.992 6.015 6.44 8.632 15.145 8.641 28.743.003 4.472.394 6.205 1.845 8.171 1.593 2.16 3.68 3.241 6.26 3.244 3.188.003 5.177-.729 6.767-2.49 2.305-2.55 2.758-4.738 2.965-14.308.266-12.262-.317-15.727-3.902-23.183-6.764-14.063-18.79-23.887-34.29-28.006-3.41-.907-4.789-1.044-10.839-1.08-5.227-.032-7.753.135-10.271.678-20.647 4.458-35.566 19.27-39.665 39.382-1.035 5.08-1.126 14.14-.196 19.474 2.398 13.75 10.528 25.522 23.25 33.666 7.418 4.75 16.569 7.362 25.863 7.384 8.141.02 13.552-1.21 22.335-5.075 2.684-1.18 4.908-1.925 5.341-1.788.648.206 3.986 3.682 7.18 7.48l1.034 1.227-2.902 1.672c-4.914 2.834-11.794 5.59-17.87 7.163-6.333 1.638-15.944 2.223-22.661 1.38zm11.674-43.754c7.722-1.637 13.722-7.996 15.094-15.998.65-3.79.03-7.526-1.892-11.416-1.838-3.719-4.42-6.38-7.661-7.897-3.21-1.502-5.947-2.021-10.657-2.021-3.416 0-3.974.118-6.687 1.418-14.472 6.936-14.658 27.192-.316 34.28 4.337 2.144 7.624 2.587 12.119 1.634z"/></svg>