<svg width="779" height="460" viewBox="0 0 779 460" fill="none" xmlns="http://www.w3.org/2000/svg">
<path d="M37.8 102.85C39.8 100.65 40.8 97.9 40.8 94.6C40.8 92.6 40.6 90.75 40.2 89.05C39.9 87.25 39.45 85.4 38.85 83.5C37.85 80.8 36.85 78.1 35.85 75.4C34.85 72.7 33.5 69.3 31.8 65.2C30.5 68.2 29.2 71.35 27.9 74.65C26.6 77.85 25.35 80.95 24.15 83.95C22.65 87.45 21.9 90.75 21.9 93.85C21.9 97.05 22.85 100.1 24.75 103H0C3.3 99.9 6.1 96.6 8.4 93.1C10.8 89.5 12.7 85.8 14.1 82L25.2 52.3C24.4 49.8 23.1 46.05 21.3 41.05C19.6 36.05 17.35 29.7 14.55 22C11.85 14.5 7.4 7.8 1.2 1.9H27.9C27.2 3.49999 26.65 4.99999 26.25 6.39999C25.85 7.69999 25.65 9.04999 25.65 10.45C25.65 12.75 26.25 15.7 27.45 19.3L32.7 35.35C33.8 32.55 34.9 29.75 36 26.95C37.1 24.15 38.2 21.3 39.3 18.4C39.9 16.8 40.35 15.4 40.65 14.2C41.05 12.9 41.25 11.65 41.25 10.45C41.25 8.75 40.75 5.95 39.75 2.04999L62.4 1.9C59.5 4.6 56.9 7.7 54.6 11.2C52.3 14.6 50.35 18.25 48.75 22.15C48.35 23.25 47.85 24.55 47.25 26.05C46.75 27.45 46.2 28.9 45.6 30.4C44.6 32.9 43.55 35.6 42.45 38.5C41.35 41.3 40.15 44.35 38.85 47.65C41.05 53.35 43.2 59.05 45.3 64.75C47.5 70.35 49.65 76 51.75 81.7C52.45 83.5 53.1 85.3 53.7 87.1C54.4 88.8 55.1 90.5 55.8 92.2C57.6 96.2 60.8 99.8 65.4 103L37.8 102.85ZM110.189 22C110.189 13.5 103.689 9.25 90.6891 9.25C90.4891 9.25 90.1891 9.25 89.7891 9.25C89.4891 9.15 89.0391 9.09999 88.4391 9.09999C87.9391 9.09999 87.5891 9.09999 87.3891 9.09999C87.1891 8.99999 86.6391 8.94999 85.7391 8.94999V51.85H97.1391C105.839 51.65 110.189 47.05 110.189 38.05V22ZM125.789 35.65C126.089 39.65 123.739 44.3 118.739 49.6C113.339 55.3 107.439 58.2 101.039 58.3H85.7391V89.05C85.7391 94.65 87.9891 99.3 92.4891 103H64.7391C69.1391 99.6 71.3391 95.1 71.3391 89.5V14.95C71.3391 13.05 70.8891 11.05 69.9891 8.94999C69.1891 6.74999 67.9391 4.49999 66.2391 2.19999L95.9391 2.04999C105.039 2.04999 112.439 4.75 118.139 10.15C122.639 14.55 125.289 19.35 126.089 24.55C126.689 26.25 127.139 27.25 127.439 27.55C127.939 28.05 128.289 28.45 128.489 28.75C128.789 29.05 129.039 29.35 129.239 29.65C129.339 29.85 129.139 30 128.639 30.1C128.239 30.1 128.089 30.2 128.189 30.4C128.189 30.3 127.839 30.95 127.139 32.35C126.539 33.75 126.089 35.15 125.789 36.55V35.65ZM170.285 64C169.185 54.7 168.185 45.55 167.285 36.55C166.385 27.45 165.385 18.3 164.285 9.09999H158.135C157.135 18.5 156.085 27.65 154.985 36.55C153.985 45.45 152.935 54.6 151.835 64C152.335 64 152.685 64 152.885 64C153.085 63.9 153.435 63.85 153.935 63.85C154.435 63.85 154.985 63.55 155.585 62.95C156.185 62.25 156.735 61.5 157.235 60.7C157.035 60.9 156.935 60.9 156.935 60.7C157.035 60.4 157.185 60 157.385 59.5C157.585 59 157.785 58.45 157.985 57.85C158.285 57.15 158.585 56.45 158.885 55.75C158.985 55.65 159.085 55.3 159.185 54.7C159.385 54 159.585 53.3 159.785 52.6C159.985 51.9 160.135 51.25 160.235 50.65C160.435 50.05 160.535 49.65 160.535 49.45L162.635 55.6C162.935 56.4 163.235 57.3 163.535 58.3C163.835 59.2 164.185 60.1 164.585 61C165.585 63 166.785 64 168.185 64H170.285ZM177.785 2.19999H181.085C179.685 4.6 178.885 7.1 178.685 9.69999C178.885 11.5 179.085 13.45 179.285 15.55C179.485 17.55 179.685 19.8 179.885 22.3V22.15C180.985 32.15 182.035 42.15 183.035 52.15C184.135 62.05 185.235 72 186.335 82C186.835 85.8 187.835 89.5 189.335 93.1C190.835 96.7 193.035 100 195.935 103H168.335C171.335 99.7 172.685 93.1 172.385 83.2C172.385 83 172.285 81.75 172.085 79.45C171.885 77.15 171.535 73.75 171.035 69.25H168.185C167.285 69.25 166.335 69.55 165.335 70.15C164.335 70.75 163.585 71.7 163.085 73L163.235 72.85C163.135 73.15 162.885 73.7 162.485 74.5C162.185 75.3 161.635 76.7 160.835 78.7L160.535 78.55C160.135 75.45 159.285 73.15 157.985 71.65C156.785 70.05 155.435 69.25 153.935 69.25H151.085C150.885 71.55 150.635 73.95 150.335 76.45C150.035 78.85 149.785 81.2 149.585 83.5C149.385 85.5 149.185 87.25 148.985 88.75C148.785 90.25 148.585 91.6 148.385 92.8C148.385 96.4 149.835 99.8 152.735 103H129.935C132.435 100.4 134.385 97.3 135.785 93.7C137.285 90 138.335 86.35 138.935 82.75C140.035 73.65 141.135 63.9 142.235 53.5C143.435 43.1 144.735 32.4 146.135 21.4C146.635 19.1 146.935 17.2 147.035 15.7C147.235 14.1 147.335 12.8 147.335 11.8C147.335 9.99999 147.085 8.29999 146.585 6.7C146.085 5.09999 145.285 3.59999 144.185 2.19999H177.785ZM274.589 102.85C270.789 102.95 267.489 103 264.689 103C261.989 103 259.739 103 257.939 103C255.039 103 252.989 102.95 251.789 102.85C250.689 102.75 250.889 102.3 252.389 101.5L251.789 101.65C254.889 97.55 256.439 92.85 256.439 87.55L256.289 16.45C253.989 30.85 251.789 45.3 249.689 59.8C247.589 74.3 245.389 88.7 243.089 103H227.189L213.089 20.65C212.889 25.35 212.789 33.35 212.789 44.65C212.789 55.95 212.739 70.75 212.639 89.05C212.639 91.35 212.839 93.7 213.239 96.1C213.639 98.4 214.689 100.7 216.389 103H198.239C201.539 97.8 203.189 93.15 203.189 89.05V14.65C203.189 8.94999 201.439 4.79999 197.939 2.19999H229.139C228.039 2.99999 226.989 3.89999 225.989 4.89999C225.089 5.89999 224.739 7.09999 224.939 8.49999C225.239 10.5 225.689 12.95 226.289 15.85C226.889 18.75 227.639 22.6 228.539 27.4C229.439 32.2 230.539 38.25 231.839 45.55C233.239 52.85 234.889 61.9 236.789 72.7C237.689 67 238.589 61.55 239.489 56.35C240.389 51.05 241.239 45.85 242.039 40.75C242.939 35.55 243.839 30.3 244.739 25C245.639 19.7 246.539 14.2 247.439 8.49999C247.839 7.09999 246.489 4.99999 243.389 2.19999H275.789C272.289 6 270.539 10.1 270.539 14.5V87.85C270.539 95.25 272.139 99.8 275.339 101.5L274.589 102.85ZM318.707 98.8C318.707 98.9 318.157 99.05 317.057 99.25C316.057 99.45 315.057 99.65 314.057 99.85C313.857 100.05 313.607 100.25 313.307 100.45C313.107 100.55 312.857 100.7 312.557 100.9C312.057 101.4 311.457 101.9 310.757 102.4C310.157 102.8 309.607 102.95 309.107 102.85C308.607 102.65 308.207 102.35 307.907 101.95C307.507 101.45 307.107 100.95 306.707 100.45C314.607 91.35 319.207 84.05 320.507 78.55C320.607 77.95 320.657 77.2 320.657 76.3C320.757 75.4 320.707 74.4 320.507 73.3C320.507 72.3 320.407 71.4 320.207 70.6C319.907 72.6 318.357 73.3 315.557 72.7C314.057 72.4 312.907 71.85 312.107 71.05C311.407 70.25 311.307 69.3 311.807 68.2C312.707 65.9 314.057 64.45 315.857 63.85C317.757 63.15 319.757 63.1 321.857 63.7C323.957 64.2 326.007 65.25 328.007 66.85C330.007 68.45 331.607 70.4 332.807 72.7C334.007 74.9 334.657 77.35 334.757 80.05C334.957 82.65 334.257 85.3 332.657 88C331.257 87.8 330.107 87.65 329.207 87.55C328.307 87.45 327.757 87.55 327.557 87.85C326.057 89.45 325.757 90.75 326.657 91.75C327.557 92.65 328.957 92.9 330.857 92.5C332.857 92.1 334.957 90.85 337.157 88.75C339.457 86.65 341.257 83.35 342.557 78.85L315.407 10.75C314.807 8.85 313.857 7.2 312.557 5.8C311.257 4.39999 309.707 3.09999 307.907 1.9H332.657C330.757 4.7 329.807 7.9 329.807 11.5L349.007 59.35C350.707 53.25 352.557 46.95 354.557 40.45C356.557 33.85 358.307 27.4 359.807 21.1C360.407 18.6 360.757 16.45 360.857 14.65C360.957 12.75 361.107 11.2 361.307 10C361.507 8.49999 361.507 7.04999 361.307 5.64999C361.107 4.14999 360.807 2.85 360.407 1.75H379.607C378.207 3.25 376.907 5 375.707 6.99999C374.607 8.89999 373.657 10.7 372.857 12.4L373.157 12.25C372.957 12.55 372.757 13.05 372.557 13.75C372.457 14.45 372.257 15.4 371.957 16.6C371.757 17.4 371.507 18.2 371.207 19C371.007 19.7 370.757 20.6 370.457 21.7C369.857 23.8 369.107 26.45 368.207 29.65C367.307 32.85 366.357 36.4 365.357 40.3C364.357 44.1 363.257 48.1 362.057 52.3C360.857 56.4 359.657 60.5 358.457 64.6C357.257 68.6 356.007 72.45 354.707 76.15C353.507 79.75 352.307 82.9 351.107 85.6C349.407 89.6 347.407 93 345.107 95.8C342.807 98.6 340.257 100.65 337.457 101.95C334.757 103.25 331.807 103.65 328.607 103.15C325.407 102.75 322.107 101.3 318.707 98.8ZM442.908 3.1C439.808 4.5 436.958 8.3 434.358 14.5C433.158 17.4 432.208 20.25 431.508 23.05C430.808 25.85 430.458 28.4 430.458 30.7C430.458 32.4 430.558 33.5 430.758 34C432.058 32.7 433.658 32.05 435.558 32.05C439.158 32.05 440.958 33.35 440.958 35.95C440.958 38.75 438.358 40.2 433.158 40.3C427.858 40.4 423.808 38.45 421.008 34.45C418.608 30.65 417.408 26.45 417.408 21.85C417.408 20.75 417.458 19.7 417.558 18.7C417.658 17.7 417.908 16.65 418.308 15.55C420.008 16.05 421.108 16.3 421.608 16.3C424.508 16.3 425.958 15.15 425.958 12.85C425.958 9.55 421.808 7.7 413.508 7.3C410.008 7.09999 407.108 8.39999 404.808 11.2C402.608 14 400.958 17.8 399.858 22.6C399.358 25.8 398.958 29.9 398.658 34.9C398.358 39.9 398.208 45.7 398.208 52.3C398.208 57.3 398.358 61.85 398.658 65.95C398.958 70.05 399.358 73.7 399.858 76.9C399.858 90.4 404.958 97.15 415.158 97.15C420.358 97.15 424.358 95 427.158 90.7H427.008C429.208 87.1 430.308 82.75 430.308 77.65C430.308 75.85 430.158 74.05 429.858 72.25C429.058 72.75 428.208 73.1 427.308 73.3C426.508 73.4 425.708 73.45 424.908 73.45C422.608 73.45 420.758 72.75 419.358 71.35C417.958 69.85 417.258 68.15 417.258 66.25C417.258 61.45 420.358 59.05 426.558 59.05C429.058 59.05 431.158 59.55 432.858 60.55H432.708C437.608 63.65 440.058 68.9 440.058 76.3C440.058 79.8 439.508 83.1 438.408 86.2C437.308 89.2 435.758 92.1 433.758 94.9C429.058 101 422.858 104.05 415.158 104.05C398.758 104.05 388.408 92.45 384.108 69.25C384.008 69.25 383.958 69.2 383.958 69.1V68.8C383.758 67.6 383.508 66.1 383.208 64.3C383.008 62.4 382.708 60.15 382.308 57.55C381.808 55.55 380.258 54 377.658 52.9C378.458 52.1 379.158 51.3 379.758 50.5C380.358 49.6 381.058 48.45 381.858 47.05C381.958 46.55 382.158 45.4 382.458 43.6C382.758 41.8 383.008 40.25 383.208 38.95C383.208 38.75 383.208 38.65 383.208 38.65C383.308 38.55 383.358 38.4 383.358 38.2C384.858 26.9 387.058 18.85 389.958 14.05V14.2C394.758 5.2 402.758 0.699994 413.958 0.699994C417.558 0.699994 420.858 1.25 423.858 2.35C424.958 2.74999 426.058 3.09999 427.158 3.39999C428.258 3.7 428.958 3.85 429.258 3.85C430.258 3.85 431.458 3.6 432.858 3.1C434.258 2.6 435.908 1.75 437.808 0.549996L442.908 3.1ZM508.351 2.19999C506.851 3.7 505.601 5.95 504.601 8.94999C503.701 11.95 503.101 15.3 502.801 19L503.101 83.8C503.101 90.9 504.851 97.3 508.351 103H482.551C486.651 96.8 488.701 90.5 488.701 84.1V52.75C488.701 50.55 488.701 47.55 488.701 43.75C488.701 39.85 488.651 35.85 488.551 31.75C488.551 27.55 488.551 23.55 488.551 19.75C488.551 15.85 488.551 12.8 488.551 10.6H465.901L466.051 52.45V83.8C466.051 90.6 467.901 97 471.601 103H445.801C447.701 100.2 449.051 97.25 449.851 94.15C450.751 91.05 451.201 87.7 451.201 84.1V19C450.901 15.3 450.251 11.95 449.251 8.94999C448.351 5.95 447.151 3.7 445.651 2.19999H508.351ZM580.095 67.75C580.095 70.45 578.195 71.8 574.395 71.8C570.995 71.8 569.295 70.7 569.295 68.5C569.295 68.1 569.445 67.85 569.745 67.75C568.445 68.05 567.795 69.6 567.795 72.4C567.795 83.4 571.345 93.6 578.445 103H511.995C512.295 102.5 512.695 101.85 513.195 101.05C513.795 100.15 514.245 99.45 514.545 98.95C514.845 98.45 515.095 98.05 515.295 97.75C515.595 97.35 515.895 96.9 516.195 96.4C517.495 93.6 518.145 90.15 518.145 86.05V17.8C518.145 12.1 516.095 6.9 511.995 2.19999H575.145C572.045 4.49999 569.645 8.24999 567.945 13.45C566.545 17.85 565.845 21.65 565.845 24.85C565.845 26.25 566.095 28.05 566.595 30.25C566.795 31.35 567.095 32.25 567.495 32.95C568.495 30.85 570.445 29.8 573.345 29.8C577.345 29.8 579.345 31.1 579.345 33.7C579.345 37.3 576.145 39.1 569.745 39.1C563.445 39.1 558.295 36.35 554.295 30.85C551.195 25.95 549.595 20.75 549.495 15.25C550.295 15.45 550.995 15.6 551.595 15.7C552.295 15.8 552.845 15.85 553.245 15.85C555.045 15.85 555.945 14.95 555.945 13.15C555.945 10.55 552.695 9.25 546.195 9.25H532.245V47.65H541.245V31.45H548.295C548.095 32.25 547.995 32.85 547.995 33.25C547.995 33.65 547.995 34.1 547.995 34.6C547.995 36.1 548.245 37.65 548.745 39.25C549.345 40.85 550.145 42.4 551.145 43.9C552.145 45.3 553.295 46.6 554.595 47.8C555.995 49 557.545 49.9 559.245 50.5V52C554.645 52.8 551.545 55.35 549.945 59.65C548.445 62.85 547.795 66.7 547.995 71.2L541.095 71.05V62.65C541.095 60.65 541.045 59.05 540.945 57.85C540.945 56.65 540.995 55.55 541.095 54.55H532.995L532.845 95.95H547.095C554.995 95.95 558.945 94.45 558.945 91.45C558.945 89.65 558.145 88.75 556.545 88.75C556.445 88.75 556.095 88.85 555.495 89.05C554.895 89.15 553.895 89.45 552.495 89.95C552.495 82.95 553.795 77.15 556.395 72.55C558.095 69.45 560.245 67.05 562.845 65.35C565.545 63.65 568.645 62.8 572.145 62.8C577.445 62.8 580.095 64.45 580.095 67.75ZM621.415 103C625.515 96.8 627.565 90.5 627.565 84.1V52.75C626.665 52.65 625.765 52.6 624.865 52.6C624.065 52.5 623.265 52.45 622.465 52.45C621.965 52.35 621.465 52.6 620.965 53.2C620.465 53.8 619.965 54.6 619.465 55.6C619.665 55.4 619.715 55.45 619.615 55.75C619.615 55.95 619.515 56.3 619.315 56.8C619.115 57.2 618.865 57.75 618.565 58.45C618.265 59.05 617.965 59.7 617.665 60.4C617.565 60.6 617.415 61 617.215 61.6C617.115 62.2 616.965 62.85 616.765 63.55C616.565 64.25 616.365 64.9 616.165 65.5C616.065 66 616.015 66.3 616.015 66.4C614.615 62.6 613.465 59.7 612.565 57.7C611.765 55.7 611.215 54.45 610.915 53.95C610.615 53.15 609.615 52.7 607.915 52.6C607.215 52.6 606.715 52.6 606.415 52.6C606.115 52.5 605.615 52.45 604.915 52.45V83.8C604.915 90.6 606.765 97 610.465 103H584.665C586.565 100.2 587.915 97.25 588.715 94.15C589.615 91.05 590.065 87.7 590.065 84.1V20.5C590.065 13.7 588.165 7.59999 584.365 2.19999H610.465C606.765 7.69999 604.915 13.8 604.915 20.5V46.75H608.515C610.315 46.75 612.715 42.25 615.715 33.25C615.915 33.75 616.165 34.5 616.465 35.5C616.865 36.5 617.215 37.55 617.515 38.65C617.915 39.65 618.315 40.65 618.715 41.65C619.115 42.65 619.415 43.45 619.615 44.05C620.415 45.95 621.565 46.9 623.065 46.9L627.415 46.75C627.415 42.25 627.415 37.9 627.415 33.7C627.515 29.4 627.565 25 627.565 20.5C627.565 13.9 625.665 7.79999 621.865 2.19999H647.065C645.165 4.99999 643.765 7.89999 642.865 10.9C642.065 13.9 641.665 17.1 641.665 20.5L641.965 83.8C641.965 90.9 643.715 97.3 647.215 103H621.415ZM683.422 62.05C682.322 65.25 681.322 68.25 680.422 71.05C679.522 73.85 678.622 76.65 677.722 79.45C676.922 82.15 676.122 84.95 675.322 87.85C674.622 90.65 673.822 93.65 672.922 96.85C672.522 98.25 673.472 100.3 675.772 103H650.422C654.622 99.9 656.722 96.95 656.722 94.15C656.722 81.65 656.722 70.8 656.722 61.6C656.722 52.4 656.722 44.65 656.722 38.35C656.722 32.05 656.722 27.1 656.722 23.5C656.822 19.8 656.872 17.25 656.872 15.85C656.972 13.25 656.472 10.85 655.372 8.65C654.372 6.35 652.872 4.3 650.872 2.5L676.222 2.35L675.772 3.54999C674.172 4.34999 672.972 5.8 672.172 7.9C671.472 9.9 671.022 12.55 670.822 15.85V64.3L681.622 32.05C682.822 28.25 683.972 24.55 685.072 20.95C686.172 17.25 687.272 13.25 688.372 8.94999C688.772 7.55 687.822 5.49999 685.522 2.79999H710.422C708.322 4.4 706.722 5.9 705.622 7.3C704.622 8.7 704.122 10.15 704.122 11.65C704.122 36.75 704.172 55.8 704.272 68.8C704.372 81.8 704.322 88.85 704.122 89.95H704.422C704.322 95.05 706.172 99.4 709.972 103H685.072L685.522 101.8C688.422 100.4 690.072 96.45 690.472 89.95V40.15L683.422 62.05ZM732.882 21.55C732.882 22.25 732.882 23.15 732.882 24.25C732.882 25.25 732.932 26.5 733.032 28V36.1C733.032 45.3 737.432 50 746.232 50.2C748.232 50.3 750.132 50.35 751.932 50.35C753.732 50.35 755.432 50.35 757.032 50.35V9.09999H748.182C743.382 9.7 739.682 11.05 737.082 13.15C734.482 15.15 733.082 17.95 732.882 21.55ZM709.932 120.55L712.332 116.2C712.932 115.1 713.582 113.9 714.282 112.6C715.082 111.4 715.732 110.3 716.232 109.3C719.732 102.4 722.932 94.55 725.832 85.75C728.832 76.95 731.332 67.8 733.332 58.3C733.432 57.8 733.482 57.35 733.482 56.95C733.582 56.45 733.682 56.05 733.782 55.75C733.782 55.55 733.782 55.4 733.782 55.3C733.882 55.1 733.932 54.95 733.932 54.85C729.732 52.65 726.182 49.85 723.282 46.45C720.482 42.95 718.682 39.15 717.882 35.05C717.582 33.65 717.082 32.25 716.382 30.85C715.782 29.45 715.482 28.8 715.482 28.9C715.582 28.7 715.382 28.6 714.882 28.6C714.482 28.5 714.332 28.35 714.432 28.15C714.632 27.85 714.832 27.55 715.032 27.25C715.332 26.95 715.732 26.55 716.232 26.05C716.532 25.75 716.982 24.75 717.582 23.05C722.182 9.25 731.482 2.25 745.482 2.04999H778.182C773.982 5.05 771.882 9.55 771.882 15.55V89.5C771.882 95.7 774.132 100.2 778.632 103H750.132C754.732 99.9 757.032 95.2 757.032 88.9C757.032 83.5 756.982 78.15 756.882 72.85C756.882 67.55 756.882 62.2 756.882 56.8C755.082 56.9 753.782 56.95 752.982 56.95C752.282 56.85 751.532 56.8 750.732 56.8C748.732 61.9 746.682 66.95 744.582 71.95C742.582 76.95 740.582 82.05 738.582 87.25C735.482 94.05 732.482 99.75 729.582 104.35C726.782 109.05 723.932 112.7 721.032 115.3L709.932 120.55ZM64.65 168.2C63.15 169.7 61.9 171.95 60.9 174.95C60 177.95 59.4 181.3 59.1 185L59.4 249.8C59.4 256.9 61.15 263.3 64.65 269H38.85C42.95 262.8 45 256.5 45 250.1V218.75C45 216.55 45 213.55 45 209.75C45 205.85 44.95 201.85 44.85 197.75C44.85 193.55 44.85 189.55 44.85 185.75C44.85 181.85 44.85 178.8 44.85 176.6H22.2L22.35 218.45V249.8C22.35 256.6 24.2 263 27.9 269H2.1C4 266.2 5.35 263.25 6.15 260.15C7.05 257.05 7.5 253.7 7.5 250.1V185C7.2 181.3 6.55 177.95 5.55 174.95C4.65 171.95 3.45 169.7 1.95 168.2H64.65ZM112.093 188C112.093 179.5 105.593 175.25 92.5934 175.25C92.3934 175.25 92.0934 175.25 91.6934 175.25C91.3934 175.15 90.9434 175.1 90.3434 175.1C89.8434 175.1 89.4934 175.1 89.2934 175.1C89.0934 175 88.5434 174.95 87.6434 174.95V217.85H99.0434C107.743 217.65 112.093 213.05 112.093 204.05V188ZM127.693 201.65C127.993 205.65 125.643 210.3 120.643 215.6C115.243 221.3 109.343 224.2 102.943 224.3H87.6434V255.05C87.6434 260.65 89.8934 265.3 94.3934 269H66.6434C71.0434 265.6 73.2434 261.1 73.2434 255.5V180.95C73.2434 179.05 72.7934 177.05 71.8934 174.95C71.0934 172.75 69.8434 170.5 68.1434 168.2L97.8434 168.05C106.943 168.05 114.343 170.75 120.043 176.15C124.543 180.55 127.193 185.35 127.993 190.55C128.593 192.25 129.043 193.25 129.343 193.55C129.843 194.05 130.193 194.45 130.393 194.75C130.693 195.05 130.943 195.35 131.143 195.65C131.243 195.85 131.043 196 130.543 196.1C130.143 196.1 129.993 196.2 130.093 196.4C130.093 196.3 129.743 196.95 129.043 198.35C128.443 199.75 127.993 201.15 127.693 202.55V201.65ZM201.139 233.75C201.139 236.45 199.239 237.8 195.439 237.8C192.039 237.8 190.339 236.7 190.339 234.5C190.339 234.1 190.489 233.85 190.789 233.75C189.489 234.05 188.839 235.6 188.839 238.4C188.839 249.4 192.389 259.6 199.489 269H133.039C133.339 268.5 133.739 267.85 134.239 267.05C134.839 266.15 135.289 265.45 135.589 264.95C135.889 264.45 136.139 264.05 136.339 263.75C136.639 263.35 136.939 262.9 137.239 262.4C138.539 259.6 139.189 256.15 139.189 252.05V183.8C139.189 178.1 137.139 172.9 133.039 168.2H196.189C193.089 170.5 190.689 174.25 188.989 179.45C187.589 183.85 186.889 187.65 186.889 190.85C186.889 192.25 187.139 194.05 187.639 196.25C187.839 197.35 188.139 198.25 188.539 198.95C189.539 196.85 191.489 195.8 194.389 195.8C198.389 195.8 200.389 197.1 200.389 199.7C200.389 203.3 197.189 205.1 190.789 205.1C184.489 205.1 179.339 202.35 175.339 196.85C172.239 191.95 170.639 186.75 170.539 181.25C171.339 181.45 172.039 181.6 172.639 181.7C173.339 181.8 173.889 181.85 174.289 181.85C176.089 181.85 176.989 180.95 176.989 179.15C176.989 176.55 173.739 175.25 167.239 175.25H153.289V213.65H162.289V197.45H169.339C169.139 198.25 169.039 198.85 169.039 199.25C169.039 199.65 169.039 200.1 169.039 200.6C169.039 202.1 169.289 203.65 169.789 205.25C170.389 206.85 171.189 208.4 172.189 209.9C173.189 211.3 174.339 212.6 175.639 213.8C177.039 215 178.589 215.9 180.289 216.5V218C175.689 218.8 172.589 221.35 170.989 225.65C169.489 228.85 168.839 232.7 169.039 237.2L162.139 237.05V228.65C162.139 226.65 162.089 225.05 161.989 223.85C161.989 222.65 162.039 221.55 162.139 220.55H154.039L153.889 261.95H168.139C176.039 261.95 179.989 260.45 179.989 257.45C179.989 255.65 179.189 254.75 177.589 254.75C177.489 254.75 177.139 254.85 176.539 255.05C175.939 255.15 174.939 255.45 173.539 255.95C173.539 248.95 174.839 243.15 177.439 238.55C179.139 235.45 181.289 233.05 183.889 231.35C186.589 229.65 189.689 228.8 193.189 228.8C198.489 228.8 201.139 230.45 201.139 233.75ZM269.91 169.1C266.81 170.5 263.96 174.3 261.36 180.5C260.16 183.4 259.21 186.25 258.51 189.05C257.81 191.85 257.46 194.4 257.46 196.7C257.46 198.4 257.56 199.5 257.76 200C259.06 198.7 260.66 198.05 262.56 198.05C266.16 198.05 267.96 199.35 267.96 201.95C267.96 204.75 265.36 206.2 260.16 206.3C254.86 206.4 250.81 204.45 248.01 200.45C245.61 196.65 244.41 192.45 244.41 187.85C244.41 186.75 244.46 185.7 244.56 184.7C244.66 183.7 244.91 182.65 245.31 181.55C247.01 182.05 248.11 182.3 248.61 182.3C251.51 182.3 252.96 181.15 252.96 178.85C252.96 175.55 248.81 173.7 240.51 173.3C237.01 173.1 234.11 174.4 231.81 177.2C229.61 180 227.96 183.8 226.86 188.6C226.36 191.8 225.96 195.9 225.66 200.9C225.36 205.9 225.21 211.7 225.21 218.3C225.21 223.3 225.36 227.85 225.66 231.95C225.96 236.05 226.36 239.7 226.86 242.9C226.86 256.4 231.96 263.15 242.16 263.15C247.36 263.15 251.36 261 254.16 256.7H254.01C256.21 253.1 257.31 248.75 257.31 243.65C257.31 241.85 257.16 240.05 256.86 238.25C256.06 238.75 255.21 239.1 254.31 239.3C253.51 239.4 252.71 239.45 251.91 239.45C249.61 239.45 247.76 238.75 246.36 237.35C244.96 235.85 244.26 234.15 244.26 232.25C244.26 227.45 247.36 225.05 253.56 225.05C256.06 225.05 258.16 225.55 259.86 226.55H259.71C264.61 229.65 267.06 234.9 267.06 242.3C267.06 245.8 266.51 249.1 265.41 252.2C264.31 255.2 262.76 258.1 260.76 260.9C256.06 267 249.86 270.05 242.16 270.05C225.76 270.05 215.41 258.45 211.11 235.25C211.01 235.25 210.96 235.2 210.96 235.1V234.8C210.76 233.6 210.51 232.1 210.21 230.3C210.01 228.4 209.71 226.15 209.31 223.55C208.81 221.55 207.26 220 204.66 218.9C205.46 218.1 206.16 217.3 206.76 216.5C207.36 215.6 208.06 214.45 208.86 213.05C208.96 212.55 209.16 211.4 209.46 209.6C209.76 207.8 210.01 206.25 210.21 204.95C210.21 204.75 210.21 204.65 210.21 204.65C210.31 204.55 210.36 204.4 210.36 204.2C211.86 192.9 214.06 184.85 216.96 180.05V180.2C221.76 171.2 229.76 166.7 240.96 166.7C244.56 166.7 247.86 167.25 250.86 168.35C251.96 168.75 253.06 169.1 254.16 169.4C255.26 169.7 255.96 169.85 256.26 169.85C257.26 169.85 258.46 169.6 259.86 169.1C261.26 168.6 262.91 167.75 264.81 166.55L269.91 169.1ZM320.803 240.65V238.55C320.803 233.05 319.703 228.65 317.503 225.35C315.403 221.95 312.703 220.25 309.403 220.25C307.503 220.25 305.953 220.65 304.753 221.45C303.653 222.25 303.103 223.15 303.103 224.15C303.103 224.25 303.153 224.3 303.253 224.3C303.353 224.4 303.453 224.45 303.553 224.45H304.903C308.503 224.45 310.303 225.85 310.303 228.65C310.303 231.25 308.303 232.55 304.303 232.55C298.103 232.55 295.003 230.05 295.003 225.05C295.003 223.05 295.653 221.25 296.953 219.65C298.253 218.05 300.553 216.6 303.853 215.3C309.653 213 313.303 211.25 314.803 210.05V210.2C318.003 206.8 319.603 200.7 319.603 191.9C319.603 188.2 319.103 185.25 318.103 183.05C317.203 180.85 315.703 179.2 313.603 178.1C311.603 176.9 309.003 176.15 305.803 175.85C302.703 175.45 299.003 175.25 294.703 175.25C294.703 189.95 294.653 204.4 294.553 218.6C294.553 232.8 294.553 247.3 294.553 262.1C299.053 262.1 302.903 261.9 306.103 261.5C309.303 261 311.903 260 313.903 258.5C316.003 257 317.603 254.85 318.703 252.05C319.803 249.15 320.503 245.35 320.803 240.65ZM339.403 241.7C338.303 242 337.403 242.8 336.703 244.1C336.003 245.4 335.553 246.6 335.353 247.7C334.553 254 331.503 259.15 326.203 263.15C321.003 267.05 313.703 269 304.303 269H273.703C278.203 265.4 280.453 260.45 280.453 254.15V182.75C280.453 177.25 278.003 172.4 273.103 168.2H302.203C320.903 168.2 331.153 174.95 332.953 188.45C333.253 189.75 333.853 190.8 334.753 191.6C335.753 192.3 336.803 193.2 337.903 194.3C335.603 196 334.153 197.2 333.553 197.9C333.053 198.6 332.803 199.6 332.803 200.9C332.103 208.2 327.653 213.3 319.453 216.2C324.153 217.4 327.753 219.45 330.253 222.35C332.753 225.15 334.403 228.9 335.203 233.6C335.203 236.6 336.653 238.8 339.553 240.2L339.403 241.7ZM361.105 187.55C361.105 188.25 361.105 189.15 361.105 190.25C361.105 191.25 361.155 192.5 361.255 194V202.1C361.255 211.3 365.655 216 374.455 216.2C376.455 216.3 378.355 216.35 380.155 216.35C381.955 216.35 383.655 216.35 385.255 216.35V175.1H376.405C371.605 175.7 367.905 177.05 365.305 179.15C362.705 181.15 361.305 183.95 361.105 187.55ZM338.155 286.55L340.555 282.2C341.155 281.1 341.805 279.9 342.505 278.6C343.305 277.4 343.955 276.3 344.455 275.3C347.955 268.4 351.155 260.55 354.055 251.75C357.055 242.95 359.555 233.8 361.555 224.3C361.655 223.8 361.705 223.35 361.705 222.95C361.805 222.45 361.905 222.05 362.005 221.75C362.005 221.55 362.005 221.4 362.005 221.3C362.105 221.1 362.155 220.95 362.155 220.85C357.955 218.65 354.405 215.85 351.505 212.45C348.705 208.95 346.905 205.15 346.105 201.05C345.805 199.65 345.305 198.25 344.605 196.85C344.005 195.45 343.705 194.8 343.705 194.9C343.805 194.7 343.605 194.6 343.105 194.6C342.705 194.5 342.555 194.35 342.655 194.15C342.855 193.85 343.055 193.55 343.255 193.25C343.555 192.95 343.955 192.55 344.455 192.05C344.755 191.75 345.205 190.75 345.805 189.05C350.405 175.25 359.705 168.25 373.705 168.05H406.405C402.205 171.05 400.105 175.55 400.105 181.55V255.5C400.105 261.7 402.355 266.2 406.855 269H378.355C382.955 265.9 385.255 261.2 385.255 254.9C385.255 249.5 385.205 244.15 385.105 238.85C385.105 233.55 385.105 228.2 385.105 222.8C383.305 222.9 382.005 222.95 381.205 222.95C380.505 222.85 379.755 222.8 378.955 222.8C376.955 227.9 374.905 232.95 372.805 237.95C370.805 242.95 368.805 248.05 366.805 253.25C363.705 260.05 360.705 265.75 357.805 270.35C355.005 275.05 352.155 278.7 349.255 281.3L338.155 286.55ZM419.505 209.75H419.355L419.505 209.9V209.75ZM486.405 212.75C485.205 215.45 482.455 216.85 478.155 216.95C475.855 217.15 473.855 216.65 472.155 215.45C472.055 215.85 471.955 216.05 471.855 216.05C471.755 215.95 471.655 215.65 471.555 215.15C468.455 213.05 465.955 209.6 464.055 204.8C463.255 202.4 462.555 199.7 461.955 196.7C461.355 193.7 460.955 190.65 460.755 187.55C460.555 186.15 460.405 184.9 460.305 183.8C460.305 182.7 460.305 181.9 460.305 181.4C461.705 181.9 462.705 182.25 463.305 182.45C464.005 182.65 464.455 182.75 464.655 182.75C466.655 182.75 467.355 181.3 466.755 178.4C466.255 176.2 462.755 175.1 456.255 175.1C456.055 175.1 455.905 175.15 455.805 175.25C455.805 175.25 455.305 175.2 454.305 175.1V253.55C454.105 259.45 455.705 264.6 459.105 269H436.005C439.405 264.3 440.905 259.15 440.505 253.55L440.805 175.1H436.905C433.905 175.1 431.705 175.3 430.305 175.7C428.905 176 427.955 176.75 427.455 177.95C427.255 179.05 427.405 180.15 427.905 181.25C428.405 182.25 429.255 182.75 430.455 182.75C430.855 182.75 431.505 182.75 432.405 182.75C433.405 182.65 434.155 182.6 434.655 182.6C434.655 182.9 434.605 183.5 434.505 184.4C434.505 185.3 434.455 186.3 434.355 187.4C434.155 190.5 433.705 193.55 433.005 196.55C432.405 199.55 431.705 202.3 430.905 204.8C429.305 208.9 427.305 212 424.905 214.1C422.505 216.2 419.755 217.15 416.655 216.95C416.055 216.85 415.455 216.8 414.855 216.8C414.255 216.7 413.605 216.55 412.905 216.35C410.705 215.65 409.155 214.35 408.255 212.45C407.955 208.75 409.705 206.9 413.505 206.9C415.805 206.9 417.255 207.15 417.855 207.65C418.455 208.05 419.005 208.7 419.505 209.6C419.505 209.7 419.505 209.75 419.505 209.75C419.805 206.75 419.905 203.45 419.805 199.85C419.805 196.25 419.505 192.65 418.905 189.05C418.305 185.35 417.405 181.7 416.205 178.1C415.105 174.5 413.655 171.2 411.855 168.2H482.955C481.155 171.3 479.655 174.65 478.455 178.25C477.355 181.75 476.505 185.3 475.905 188.9C475.305 192.5 474.955 196.1 474.855 199.7C474.755 203.3 474.855 206.7 475.155 209.9C475.355 209.7 475.505 209.45 475.605 209.15C475.805 208.85 476.005 208.6 476.205 208.4L476.055 208.55C476.655 207.25 478.205 206.6 480.705 206.6C484.905 206.6 486.855 208.55 486.555 212.45L486.405 212.75ZM534.893 190.1C534.693 187.3 534.443 185 534.143 183.2C533.943 181.4 533.693 180.1 533.393 179.3C531.593 175.4 528.443 173.45 523.943 173.45C521.943 173.45 520.193 173.95 518.693 174.95C517.293 175.85 516.093 177.1 515.093 178.7C514.193 180.2 513.493 181.95 512.993 183.95C512.493 185.95 512.243 188 512.243 190.1C512.243 195.2 512.143 200.95 511.943 207.35C511.843 213.65 511.793 219.95 511.793 226.25C511.793 232.55 511.893 238.5 512.093 244.1C512.393 249.7 512.993 254.3 513.893 257.9C514.393 260 515.593 261.5 517.493 262.4C519.493 263.3 521.643 263.75 523.943 263.75C528.443 263.75 531.593 261.8 533.393 257.9C533.693 257.1 533.943 255.8 534.143 254C534.443 252.2 534.693 249.9 534.893 247.1V190.1ZM557.993 218.6C552.193 221.7 549.293 230.95 549.293 246.35C549.293 249.25 548.693 252.05 547.493 254.75C546.293 257.35 544.593 259.85 542.393 262.25C537.593 267.55 531.393 270.2 523.793 270.2C515.893 270.2 509.743 267.55 505.343 262.25C501.443 257.45 499.293 252.15 498.893 246.35C498.693 243.15 498.343 239.9 497.843 236.6C497.343 233.2 496.793 229.9 496.193 226.7C495.693 225.2 494.843 223.9 493.643 222.8C492.443 221.7 491.243 220.65 490.043 219.65C489.843 219.45 489.643 219.3 489.443 219.2C489.343 219.1 489.193 218.95 488.993 218.75C492.593 216.75 494.643 214.05 495.143 210.65C495.643 208.35 496.193 205.55 496.793 202.25C497.393 198.95 498.093 195 498.893 190.4C499.693 184.6 501.993 179.4 505.793 174.8C510.393 169.4 516.543 166.7 524.243 166.7C531.743 166.7 537.843 169.4 542.543 174.8C547.043 179.8 549.293 185.05 549.293 190.55C549.093 197.05 550.193 204.1 552.593 211.7C553.293 214.2 555.143 216.35 558.143 218.15L557.993 218.6ZM594.213 228.05C593.113 231.25 592.113 234.25 591.213 237.05C590.313 239.85 589.413 242.65 588.513 245.45C587.713 248.15 586.913 250.95 586.113 253.85C585.413 256.65 584.613 259.65 583.713 262.85C583.613 263.05 583.563 263.3 583.563 263.6C583.563 264.7 584.563 266.5 586.563 269H561.213C565.413 265.9 567.513 262.95 567.513 260.15V181.85C567.513 176.55 565.563 172.1 561.663 168.5L587.013 168.35L586.563 169.55C584.963 170.35 583.763 171.8 582.963 173.9C582.263 175.9 581.813 178.55 581.613 181.85V230.3L592.413 198.05C593.713 194.25 594.863 190.55 595.863 186.95C596.863 183.25 597.963 179.25 599.163 174.95C599.163 174.75 599.163 174.65 599.163 174.65C599.263 174.55 599.313 174.4 599.313 174.2C599.313 173.1 598.313 171.3 596.313 168.8H621.213C619.113 170.4 617.513 171.9 616.413 173.3C615.413 174.7 614.913 176.15 614.913 177.65C614.913 194.45 614.913 208.5 614.913 219.8C615.013 231 615.063 239.65 615.063 245.75C615.063 248.75 615.063 251.1 615.063 252.8C615.063 254.5 615.013 255.55 614.913 255.95H615.213C615.213 258.65 615.613 261.05 616.413 263.15C617.313 265.25 618.763 267.2 620.763 269H595.863L596.313 267.8C599.213 266.4 600.863 262.45 601.263 255.95V206.15L594.213 228.05ZM584.163 152.15C584.163 153.55 584.863 154.65 586.263 155.45C587.763 156.15 589.413 156.5 591.213 156.5C593.113 156.4 594.863 155.95 596.463 155.15C598.063 154.25 598.913 153 599.013 151.4C599.413 149.4 600.113 147.85 601.113 146.75C602.213 145.55 603.413 144.8 604.713 144.5C606.013 144.2 607.263 144.4 608.463 145.1C609.763 145.7 610.763 146.75 611.463 148.25C611.563 151.35 610.663 153.9 608.763 155.9C606.863 157.9 604.413 159.45 601.413 160.55C598.413 161.55 595.213 162.1 591.813 162.2C588.413 162.2 585.213 161.75 582.213 160.85C579.213 159.95 576.713 158.55 574.713 156.65C572.713 154.75 571.713 152.4 571.713 149.6C572.013 147.6 572.813 146.15 574.113 145.25C575.513 144.25 576.963 143.9 578.463 144.2C579.963 144.5 581.263 145.3 582.363 146.6C583.563 147.9 584.163 149.75 584.163 152.15ZM46.65 399.15C46.65 390.15 42.3 385.55 33.6 385.35H22.2V428.25C25.2 428.25 28.2 428.15 31.2 427.95C34.3 427.65 37.05 427.15 39.45 426.45C41.85 425.65 43.7 424.5 45 423C46.4 421.5 46.95 419.45 46.65 416.85V399.15ZM21.9 341.25C21.9 343.85 21.9 346.8 21.9 350.1C22 353.3 22.05 356.65 22.05 360.15C22.05 363.55 22.05 366.9 22.05 370.2C22.15 373.4 22.2 376.3 22.2 378.9H37.5C43.9 379 49.8 381.9 55.2 387.6C60.2 392.9 62.55 397.55 62.25 401.55V400.65C62.55 402.05 63 403.45 63.6 404.85C64.3 406.25 64.65 406.9 64.65 406.8C64.55 407 64.7 407.15 65.1 407.25C65.6 407.25 65.8 407.35 65.7 407.55C65.5 407.85 65.25 408.15 64.95 408.45C64.75 408.75 64.4 409.15 63.9 409.65C63.6 409.95 63.15 410.95 62.55 412.65C61.75 417.85 59.1 422.65 54.6 427.05C48.9 432.45 41.5 435.15 32.4 435.15L2.7 435C4.4 432.7 5.65 430.5 6.45 428.4C7.35 426.2 7.8 424.15 7.8 422.25V349.8C7.8 344.1 5.75 338.9 1.65 334.2H64.8C61.7 336.5 59.3 340.25 57.6 345.45C56.2 349.85 55.5 353.65 55.5 356.85C55.5 358.25 55.75 360.05 56.25 362.25C56.45 363.35 56.75 364.25 57.15 364.95C58.15 362.85 60.1 361.8 63 361.8C67 361.8 69 363.1 69 365.7C69 369.3 65.8 371.1 59.4 371.1C53.1 371.1 47.95 368.35 43.95 362.85C40.85 357.95 39.25 352.75 39.15 347.25C39.95 347.45 40.65 347.6 41.25 347.7C41.95 347.8 42.5 347.85 42.9 347.85C44.7 347.85 45.6 346.95 45.6 345.15C45.6 342.55 42.35 341.25 35.85 341.25H21.9ZM115.801 356.1C115.601 353.3 115.351 351 115.051 349.2C114.851 347.4 114.601 346.1 114.301 345.3C112.501 341.4 109.351 339.45 104.851 339.45C102.851 339.45 101.101 339.95 99.6012 340.95C98.2012 341.85 97.0012 343.1 96.0012 344.7C95.1012 346.2 94.4012 347.95 93.9012 349.95C93.4012 351.95 93.1512 354 93.1512 356.1C93.1512 361.2 93.0512 366.95 92.8512 373.35C92.7512 379.65 92.7012 385.95 92.7012 392.25C92.7012 398.55 92.8012 404.5 93.0012 410.1C93.3012 415.7 93.9012 420.3 94.8012 423.9C95.3012 426 96.5012 427.5 98.4012 428.4C100.401 429.3 102.551 429.75 104.851 429.75C109.351 429.75 112.501 427.8 114.301 423.9C114.601 423.1 114.851 421.8 115.051 420C115.351 418.2 115.601 415.9 115.801 413.1V356.1ZM138.901 384.6C133.101 387.7 130.201 396.95 130.201 412.35C130.201 415.25 129.601 418.05 128.401 420.75C127.201 423.35 125.501 425.85 123.301 428.25C118.501 433.55 112.301 436.2 104.701 436.2C96.8012 436.2 90.6512 433.55 86.2512 428.25C82.3512 423.45 80.2012 418.15 79.8012 412.35C79.6012 409.15 79.2512 405.9 78.7512 402.6C78.2512 399.2 77.7012 395.9 77.1012 392.7C76.6012 391.2 75.7512 389.9 74.5512 388.8C73.3512 387.7 72.1512 386.65 70.9512 385.65C70.7512 385.45 70.5512 385.3 70.3512 385.2C70.2512 385.1 70.1012 384.95 69.9012 384.75C73.5012 382.75 75.5512 380.05 76.0512 376.65C76.5512 374.35 77.1012 371.55 77.7012 368.25C78.3012 364.95 79.0012 361 79.8012 356.4C80.6012 350.6 82.9012 345.4 86.7012 340.8C91.3012 335.4 97.4512 332.7 105.151 332.7C112.651 332.7 118.751 335.4 123.451 340.8C127.951 345.8 130.201 351.05 130.201 356.55C130.001 363.05 131.101 370.1 133.501 377.7C134.201 380.2 136.051 382.35 139.051 384.15L138.901 384.6ZM161.621 418.2C161.821 421 161.971 423.1 162.071 424.5C162.171 425.8 162.371 426.9 162.671 427.8C163.071 428.6 163.671 429.5 164.471 430.5C165.371 431.4 166.671 432.9 168.371 435C168.171 435 167.221 435 165.521 435C163.821 434.9 161.971 434.85 159.971 434.85C158.071 434.85 155.571 434.9 152.471 435C149.471 435 146.121 435 142.421 435L141.971 433.65C142.271 433.45 142.621 433.15 143.021 432.75C143.521 432.25 144.021 431.55 144.521 430.65C146.421 427.45 147.371 423.25 147.371 418.05V349.8C147.371 344.1 145.321 338.9 141.221 334.2H184.271H204.521C202.821 335.3 201.321 336.85 200.021 338.85C198.821 340.75 197.821 342.95 197.021 345.45C195.621 349.85 194.921 353.65 194.921 356.85C194.921 358.25 195.171 360.05 195.671 362.25V362.1C195.871 362.9 196.021 363.5 196.121 363.9C196.321 364.2 196.521 364.5 196.721 364.8C197.221 363.6 197.921 362.8 198.821 362.4C199.721 362 200.921 361.8 202.421 361.8C206.521 361.8 208.571 363.1 208.571 365.7C208.571 369.7 205.221 371.7 198.521 371.7C195.321 371.7 192.421 370.95 189.821 369.45C187.221 367.85 185.021 365.7 183.221 363C181.821 360.7 180.721 358.2 179.921 355.5C179.221 352.7 178.821 349.75 178.721 346.65L183.971 348C185.971 348 186.971 347.05 186.971 345.15C186.971 342.45 183.221 341.1 175.721 341.1H161.471L161.621 418.2ZM256.28 356.1C256.08 353.3 255.83 351 255.53 349.2C255.33 347.4 255.08 346.1 254.78 345.3C252.98 341.4 249.83 339.45 245.33 339.45C243.33 339.45 241.58 339.95 240.08 340.95C238.68 341.85 237.48 343.1 236.48 344.7C235.58 346.2 234.88 347.95 234.38 349.95C233.88 351.95 233.63 354 233.63 356.1C233.63 361.2 233.53 366.95 233.33 373.35C233.23 379.65 233.18 385.95 233.18 392.25C233.18 398.55 233.28 404.5 233.48 410.1C233.78 415.7 234.38 420.3 235.28 423.9C235.78 426 236.98 427.5 238.88 428.4C240.88 429.3 243.03 429.75 245.33 429.75C249.83 429.75 252.98 427.8 254.78 423.9C255.08 423.1 255.33 421.8 255.53 420C255.83 418.2 256.08 415.9 256.28 413.1V356.1ZM279.38 384.6C273.58 387.7 270.68 396.95 270.68 412.35C270.68 415.25 270.08 418.05 268.88 420.75C267.68 423.35 265.98 425.85 263.78 428.25C258.98 433.55 252.78 436.2 245.18 436.2C237.28 436.2 231.13 433.55 226.73 428.25C222.83 423.45 220.68 418.15 220.28 412.35C220.08 409.15 219.73 405.9 219.23 402.6C218.73 399.2 218.18 395.9 217.58 392.7C217.08 391.2 216.23 389.9 215.03 388.8C213.83 387.7 212.63 386.65 211.43 385.65C211.23 385.45 211.03 385.3 210.83 385.2C210.73 385.1 210.58 384.95 210.38 384.75C213.98 382.75 216.03 380.05 216.53 376.65C217.03 374.35 217.58 371.55 218.18 368.25C218.78 364.95 219.48 361 220.28 356.4C221.08 350.6 223.38 345.4 227.18 340.8C231.78 335.4 237.93 332.7 245.63 332.7C253.13 332.7 259.23 335.4 263.93 340.8C268.43 345.8 270.68 351.05 270.68 356.55C270.48 363.05 271.58 370.1 273.98 377.7C274.68 380.2 276.53 382.35 279.53 384.15L279.38 384.6ZM326.4 354C326.4 345.5 319.9 341.25 306.9 341.25C306.7 341.25 306.4 341.25 306 341.25C305.7 341.15 305.25 341.1 304.65 341.1C304.15 341.1 303.8 341.1 303.6 341.1C303.4 341 302.85 340.95 301.95 340.95V383.85H313.35C322.05 383.65 326.4 379.05 326.4 370.05V354ZM342 367.65C342.3 371.65 339.95 376.3 334.95 381.6C329.55 387.3 323.65 390.2 317.25 390.3H301.95V421.05C301.95 426.65 304.2 431.3 308.7 435H280.95C285.35 431.6 287.55 427.1 287.55 421.5V346.95C287.55 345.05 287.1 343.05 286.2 340.95C285.4 338.75 284.15 336.5 282.45 334.2L312.15 334.05C321.25 334.05 328.65 336.75 334.35 342.15C338.85 346.55 341.5 351.35 342.3 356.55C342.9 358.25 343.35 359.25 343.65 359.55C344.15 360.05 344.5 360.45 344.7 360.75C345 361.05 345.25 361.35 345.45 361.65C345.55 361.85 345.35 362 344.85 362.1C344.45 362.1 344.3 362.2 344.4 362.4C344.4 362.3 344.05 362.95 343.35 364.35C342.75 365.75 342.3 367.15 342 368.55V367.65ZM393.096 356.1C392.896 353.3 392.646 351 392.346 349.2C392.146 347.4 391.896 346.1 391.596 345.3C389.796 341.4 386.646 339.45 382.146 339.45C380.146 339.45 378.396 339.95 376.896 340.95C375.496 341.85 374.296 343.1 373.296 344.7C372.396 346.2 371.696 347.95 371.196 349.95C370.696 351.95 370.446 354 370.446 356.1C370.446 361.2 370.346 366.95 370.146 373.35C370.046 379.65 369.996 385.95 369.996 392.25C369.996 398.55 370.096 404.5 370.296 410.1C370.596 415.7 371.196 420.3 372.096 423.9C372.596 426 373.796 427.5 375.696 428.4C377.696 429.3 379.846 429.75 382.146 429.75C386.646 429.75 389.796 427.8 391.596 423.9C391.896 423.1 392.146 421.8 392.346 420C392.646 418.2 392.896 415.9 393.096 413.1V356.1ZM416.196 384.6C410.396 387.7 407.496 396.95 407.496 412.35C407.496 415.25 406.896 418.05 405.696 420.75C404.496 423.35 402.796 425.85 400.596 428.25C395.796 433.55 389.596 436.2 381.996 436.2C374.096 436.2 367.946 433.55 363.546 428.25C359.646 423.45 357.496 418.15 357.096 412.35C356.896 409.15 356.546 405.9 356.046 402.6C355.546 399.2 354.996 395.9 354.396 392.7C353.896 391.2 353.046 389.9 351.846 388.8C350.646 387.7 349.446 386.65 348.246 385.65C348.046 385.45 347.846 385.3 347.646 385.2C347.546 385.1 347.396 384.95 347.196 384.75C350.796 382.75 352.846 380.05 353.346 376.65C353.846 374.35 354.396 371.55 354.996 368.25C355.596 364.95 356.296 361 357.096 356.4C357.896 350.6 360.196 345.4 363.996 340.8C368.596 335.4 374.746 332.7 382.446 332.7C389.946 332.7 396.046 335.4 400.746 340.8C405.246 345.8 407.496 351.05 407.496 356.55C407.296 363.05 408.396 370.1 410.796 377.7C411.496 380.2 413.346 382.35 416.346 384.15L416.196 384.6ZM437.266 435C432.866 434.7 430.666 435.65 430.666 437.85C430.666 438.25 430.816 438.65 431.116 439.05C431.516 439.55 432.116 439.85 432.916 439.95C433.616 439.75 434.316 439.6 435.016 439.5C435.816 439.5 436.716 439.4 437.716 439.2C437.716 444.5 435.416 449.6 430.816 454.5C427.316 457.8 423.466 459.45 419.266 459.45C418.066 459.45 417.066 459.3 416.266 459C415.366 458.8 414.566 458.45 413.866 457.95L413.566 457.8C412.766 456.8 412.366 456.05 412.366 455.55C412.366 453.15 414.116 451.95 417.616 451.95C420.016 451.95 421.616 452.55 422.416 453.75C423.616 450.55 424.066 447.6 423.766 444.9C423.466 442.3 422.816 439.9 421.816 437.7C420.816 435.5 419.566 433.55 418.066 431.85C416.666 430.05 415.416 428.5 414.316 427.2H425.866C427.166 423.8 428.416 419.7 429.616 414.9C430.916 410 432.016 404.75 432.916 399.15C433.816 393.45 434.466 387.6 434.866 381.6C435.266 375.5 435.266 369.55 434.866 363.75C434.566 357.95 433.766 352.5 432.466 347.4C431.166 342.3 429.266 337.85 426.766 334.05H480.016C476.916 337.15 475.066 342.35 474.466 349.65C474.466 355.35 474.466 361.55 474.466 368.25C474.466 374.85 474.416 381.6 474.316 388.5C474.316 395.3 474.316 402.05 474.316 408.75C474.316 415.35 474.316 421.5 474.316 427.2H487.666C486.566 428.5 485.266 430.05 483.766 431.85C482.366 433.55 481.166 435.5 480.166 437.7C479.166 439.9 478.516 442.3 478.216 444.9C477.916 447.6 478.366 450.55 479.566 453.75C480.266 452.55 481.866 451.95 484.366 451.95C487.866 451.95 489.616 453.15 489.616 455.55C489.616 456.05 489.216 456.8 488.416 457.8L488.116 457.95C487.416 458.45 486.616 458.8 485.716 459C484.916 459.3 483.916 459.45 482.716 459.45C478.516 459.45 474.666 457.8 471.166 454.5C466.566 449.6 464.266 444.5 464.266 439.2C465.266 439.4 466.116 439.5 466.816 439.5C467.616 439.6 468.366 439.75 469.066 439.95C469.866 439.85 470.416 439.55 470.716 439.05C471.116 438.65 471.316 438.25 471.316 437.85C471.316 435.65 469.116 434.7 464.716 435H437.266ZM460.216 341.25H450.916C446.416 341.25 443.266 341.4 441.466 341.7C439.766 342 438.916 343.05 438.916 344.85C438.916 345.55 439.216 346.2 439.816 346.8C440.416 347.4 441.016 347.7 441.616 347.7H448.216C448.916 351.1 449.216 355.1 449.116 359.7C449.016 364.2 448.616 369 447.916 374.1C447.316 379.2 446.516 384.4 445.516 389.7C444.516 395 443.416 400.05 442.216 404.85C441.116 409.65 439.966 414 438.766 417.9C437.666 421.8 436.666 424.9 435.766 427.2H460.366L460.216 341.25ZM523.168 394.05C522.068 397.25 521.068 400.25 520.168 403.05C519.268 405.85 518.368 408.65 517.468 411.45C516.668 414.15 515.868 416.95 515.068 419.85C514.368 422.65 513.568 425.65 512.668 428.85C512.268 430.25 513.218 432.3 515.518 435H490.168C494.368 431.9 496.468 428.95 496.468 426.15C496.468 413.65 496.468 402.8 496.468 393.6C496.468 384.4 496.468 376.65 496.468 370.35C496.468 364.05 496.468 359.1 496.468 355.5C496.568 351.8 496.618 349.25 496.618 347.85C496.718 345.25 496.218 342.85 495.118 340.65C494.118 338.35 492.618 336.3 490.618 334.5L515.968 334.35L515.518 335.55C513.918 336.35 512.718 337.8 511.918 339.9C511.218 341.9 510.768 344.55 510.568 347.85V396.3L521.368 364.05C522.568 360.25 523.718 356.55 524.818 352.95C525.918 349.25 527.018 345.25 528.118 340.95C528.518 339.55 527.568 337.5 525.268 334.8H550.168C548.068 336.4 546.468 337.9 545.368 339.3C544.368 340.7 543.868 342.15 543.868 343.65C543.868 368.75 543.918 387.8 544.018 400.8C544.118 413.8 544.068 420.85 543.868 421.95H544.168C544.068 427.05 545.918 431.4 549.718 435H524.818L525.268 433.8C528.168 432.4 529.818 428.45 530.218 421.95V372.15L523.168 394.05ZM612.529 426.75H625.879C624.779 428.05 623.479 429.6 621.979 431.4C620.579 433.2 619.379 435.2 618.379 437.4C617.379 439.7 616.729 442.2 616.429 444.9C616.129 447.6 616.579 450.55 617.779 453.75C618.479 452.55 620.079 451.95 622.579 451.95C626.079 451.95 627.829 453.15 627.829 455.55C627.829 456.05 627.429 456.8 626.629 457.8L626.329 457.95C625.629 458.45 624.829 458.8 623.929 459C623.129 459.3 622.129 459.45 620.929 459.45C616.729 459.45 612.879 457.8 609.379 454.5C604.779 449.6 602.479 444.5 602.479 439.2C603.479 439.4 604.329 439.5 605.029 439.5C605.829 439.6 606.579 439.75 607.279 439.95C608.079 439.85 608.629 439.55 608.929 439.05C609.329 438.65 609.529 438.25 609.529 437.85C609.529 435.65 607.329 434.7 602.929 435H554.929C556.429 433.5 557.629 431.25 558.529 428.25C559.529 425.25 560.179 421.9 560.479 418.2V353.1C560.479 349.5 560.029 346.15 559.129 343.05C558.329 339.95 556.979 337 555.079 334.2H580.879C577.179 340.2 575.329 346.6 575.329 353.4V384.75L575.179 426.6H597.829C597.829 424.4 597.829 421.4 597.829 417.6C597.829 413.7 597.829 409.7 597.829 405.6C597.929 401.4 597.979 397.4 597.979 393.6C597.979 389.7 597.979 386.65 597.979 384.45V353.1C597.979 346.7 595.929 340.4 591.829 334.2H617.629C614.129 339.9 612.379 346.3 612.379 353.4L612.529 426.75ZM655.743 334.05C651.643 338.75 649.593 343.9 649.593 349.5C649.593 352.1 649.593 354.95 649.593 358.05C649.593 361.15 649.543 364.3 649.443 367.5C649.443 370.6 649.443 373.7 649.443 376.8C649.443 379.9 649.443 382.75 649.443 385.35V428.25C652.943 428.45 656.243 428.45 659.343 428.25C662.543 428.05 665.243 427.55 667.443 426.75C669.743 425.95 671.443 424.75 672.543 423.15C673.743 421.55 674.193 419.45 673.893 416.85V397.8C673.993 395.2 673.543 393.1 672.543 391.5C671.543 389.8 670.293 388.35 668.793 387.15C667.293 385.95 665.643 384.9 663.843 384C662.043 383.1 660.343 382.15 658.743 381.15C657.243 380.05 655.943 378.8 654.843 377.4C653.843 376 653.343 374.2 653.343 372C653.343 369.5 654.093 367.5 655.593 366C657.093 364.5 659.393 363.75 662.493 363.75C666.493 363.75 668.493 365.05 668.493 367.65C668.493 370.45 666.693 371.85 663.093 371.85H661.743C661.543 372.05 661.443 372.25 661.443 372.45C661.343 372.65 661.293 372.8 661.293 372.9C661.193 374.3 661.793 375.5 663.093 376.5C664.493 377.4 666.243 378.3 668.343 379.2C670.443 380 672.693 380.9 675.093 381.9C677.593 382.8 679.893 383.95 681.993 385.35C684.193 386.75 685.993 388.45 687.393 390.45C688.893 392.45 689.743 394.95 689.943 397.95V400.65C690.243 402.05 690.693 403.45 691.293 404.85C691.993 406.25 692.343 406.9 692.343 406.8C692.243 407 692.393 407.15 692.793 407.25C693.293 407.25 693.493 407.35 693.393 407.55C693.193 407.85 692.943 408.15 692.643 408.45C692.443 408.75 692.093 409.15 691.593 409.65C691.293 409.95 690.843 410.95 690.243 412.65C689.443 417.85 686.793 422.65 682.293 427.05C676.593 432.45 669.043 435.15 659.643 435.15L629.943 435C631.643 432.7 632.893 430.5 633.693 428.4C634.593 426.2 635.043 424.15 635.043 422.25V349.8C635.043 344.1 632.993 338.9 628.893 334.2L655.743 334.05ZM694.143 435C694.643 434.2 695.193 433.25 695.793 432.15C696.493 430.95 697.043 430.1 697.443 429.6H697.293C697.793 428.9 698.193 428.4 698.493 428.1C698.793 427.7 698.993 427.4 699.093 427.2L698.943 427.35C699.143 426.55 699.343 425.45 699.543 424.05C699.743 422.65 699.893 421 699.993 419.1V350.85C699.993 344.15 697.993 338.55 693.993 334.05H719.493C718.093 336.15 716.943 337.95 716.043 339.45C715.243 340.85 714.743 341.85 714.543 342.45C714.343 343.15 714.143 344.2 713.943 345.6C713.843 346.9 713.843 348.65 713.943 350.85C713.943 354.65 713.943 358.85 713.943 363.45C714.043 368.05 714.093 373.2 714.093 378.9C714.093 384.6 714.043 390.75 713.943 397.35C713.943 403.95 713.943 411.05 713.943 418.65C713.843 420.75 713.843 422.5 713.943 423.9C714.143 425.2 714.343 426.2 714.543 426.9C714.643 427.3 715.343 428.45 716.643 430.35C716.943 430.85 717.343 431.6 717.843 432.6C718.443 433.5 718.993 434.3 719.493 435H694.143Z" fill="black"/>
</svg>
