<svg xmlns="http://www.w3.org/2000/svg" viewBox="0 0 213.991 214.062"><path d="M53.447 213.476c-32.455-2.866-46.497-14.274-51.672-41.98C.212 163.129 0 155.432 0 106.996c0-48.437.212-56.134 1.775-64.5C6.31 18.208 18.209 6.31 42.495 1.774 50.862.212 58.56 0 106.995 0c48.437 0 56.134.212 64.5 1.775 24.287 4.536 36.185 16.434 40.721 40.72 1.563 8.367 1.775 16.064 1.775 64.5 0 48.437-.212 56.134-1.775 64.5-3.409 18.251-10.945 29.336-24.22 35.626-12.737 6.035-18.17 6.538-74.5 6.886-27.776.171-54.797-.068-60.05-.531zm61.048-78v-15.019l2.75.672c13.516 3.3 22.323 10.392 28.526 22.97l3.154 6.397h23.787l-.67-2.75c-2.755-11.319-16.608-29.383-27.415-35.75-2.8-1.65-5.1-3.277-5.112-3.615-.01-.337 1.778-1.86 3.975-3.382 8.72-6.043 18.322-19.062 21.923-29.725 1.145-3.392 2.082-6.754 2.082-7.473 0-.994-2.58-1.306-10.799-1.306h-10.799l-1.322 3.75c-2.29 6.501-7.808 14.703-13.527 20.112-5.066 4.792-12.235 9.063-15.303 9.117-.95.017-1.25-3.933-1.25-16.479v-16.5h-22v29c0 15.95-.24 29-.533 29-2.324 0-10.885-5.74-14.795-9.92-8.467-9.051-13.491-22.514-15.238-40.83l-.692-7.25H38.495l.004 5.25c.01 13.482 4.707 31.698 11.51 44.643 10.944 20.827 32.736 33.666 57.736 34.014l6.75.094z"/><path fill="#fff" d="M96.091 148.77c-20.75-3.755-37.957-16.614-46.725-34.919-5.948-12.416-10.223-29.518-10.223-40.895v-6.087H60.834l.992 8.926c2.015 18.119 7.098 30.664 16.043 39.595 5.737 5.728 12.808 10.305 14.032 9.082.36-.36.76-13.468.89-29.129l.233-28.474h21.142v15.02c0 8.26.223 15.6.495 16.309 2.082 5.425 19.01-7.236 26.25-19.632 1.792-3.07 3.693-6.957 4.222-8.64l.963-3.057 9.519.012c5.235.007 9.979.305 10.542.662.792.504.565 1.996-1.011 6.63-3.505 10.305-9.142 18.65-18.363 27.187-3.247 3.007-6.227 5.467-6.62 5.467-2.103 0-.183 2.81 3.564 5.217 6.563 4.217 11.498 8.92 16.941 16.143 4.982 6.61 9.877 15.431 10.887 19.618l.541 2.242h-22.782l-3.379-6.495c-6.649-12.78-15.648-19.842-29.526-23.17l-2.243-.538V150.047l-5.912-.073c-3.251-.04-8.725-.582-12.163-1.204z"/></svg>